<?xml version="1.0" encoding="iso-8859-1"?>
<!-- Generator: Adobe Illustrator 17.1.0, SVG Export Plug-In . SVG Version: 6.00 Build 0)  -->
<!DOCTYPE svg PUBLIC "-//W3C//DTD SVG 1.1//EN" "http://www.w3.org/Graphics/SVG/1.1/DTD/svg11.dtd">
<svg version="1.1" id="Layer_1" xmlns="http://www.w3.org/2000/svg" xmlns:xlink="http://www.w3.org/1999/xlink" x="0px" y="0px"
	 viewBox="0 0 163.512 75.041" style="enable-background:new 0 0 163.512 75.041;" xml:space="preserve">
<g>
	<path style="fill:#FFFFFF;" d="M162.548,17.579c0.184-0.403,1.002-0.697,0.799-1.533c-0.141-0.548-0.398-1.153-0.215-1.882
		c0.128-0.458,0.49-1.353,0.347-1.973c-0.114-0.546-0.311-0.984-0.441-1.51c-0.182-0.733-0.123-1.499-0.381-2.12
		c-0.184-0.436-0.455-0.839-0.729-1.204c-0.199-0.184-0.402-0.384-0.605-0.569c-0.217-0.291-0.308-0.652-0.524-0.928
		c-0.276-0.366-0.803-0.53-1.227-0.75c-0.861-0.44-1.587-0.951-2.92-0.583c-1.607,0.44-2.993,1.13-4.25,1.916
		c-0.532,0.332-1.19,0.659-1.552,1.154c-0.132,0.2-0.004,0.4-0.097,0.62c-0.086,0.07-0.163,0.144-0.234,0.214
		c-0.13,0.167-0.273,0.42-0.349,0.607c-0.472,1.111,0,3.154,0.238,4.176c0.04,0.402,0.091,0.803,0.132,1.189
		c-0.041,0.309-0.076,0.582,0.036,0.857c0.782,1.914,2.479,3.448,4.16,4.473c0.563,0.361,1.26,0.802,2.045,0.893
		c-0.097,0.458-0.188,0.933-0.369,1.333c-0.145,0.327-0.399,0.599-0.548,0.928c-0.27-0.055-0.511-0.236-0.82-0.308
		c-0.712-0.166-1.459,0.259-2.169,0.094c-0.844-0.2-2.281-0.46-3.218-0.203c-1.039,0.292-1.803,0.825-2.68,1.239
		c0.095,0.26,0.418,0.384,0.511,0.643c0.145-0.021,0.182-0.075,0.24-0.167c0.564,0.019,1.24,0.421,1.895,0.274
		c0.638-0.146,1.186-0.421,1.773-0.583c0.985-0.255,1.643,0.581,1.405,1.642c-0.057,0.29-0.114,0.637-0.201,0.879
		c-0.041,0.214-0.092,0.417-0.132,0.621c-0.035,0.054-0.144,0.069-0.18,0.142c-0.059,0.183,0.036,0.347-0.059,0.475
		c-0.087,0.095-0.306,0.203-0.416,0.275c-0.038,0.235,0.037,0.8-0.108,0.951c-0.038,0.088-0.438,0.271-0.582,0.273
		c-0.041,0.271-0.66,0.509-0.881,0.657c0,0.093,0,0.183,0.023,0.239c0,0.361-0.135,0.471-0.371,0.582
		c-0.057,0.017-0.108,0.02-0.178,0.036c-0.004,0.075-0.02,0.163-0.021,0.239c-0.055,0.073-0.184,0.038-0.252,0.092
		c-0.079,0.11-0.091,0.273-0.166,0.383c-0.128,0.183-0.366,0.401-0.55,0.512c-0.221,0.143-0.617,0.108-0.82,0.238
		c-0.093,0.07-0.238,0.255-0.275,0.381v0.31c-0.11,0.221-0.362,0.075-0.621,0.167c-0.093,0.037-0.147,0.129-0.273,0.18
		c-0.075,0.018-0.052-0.016-0.145-0.072c-0.075,0.128-0.238,0.241-0.296,0.368c0.021,0.087,0.058,0.306,0,0.382
		c-0.091,0.108-0.179,0.02-0.217,0.203c-0.035,0.072,0,0.11,0.073,0.178c-0.091,0.24-0.511,0.495-0.655,0.714
		c-0.202,0.294,0.073,0.492-0.202,0.749c-0.054,0.035-0.038,0.017-0.106-0.035h-0.025c0.021,0.087,0.004,0.055,0.06,0.106
		c-0.06,0.278-0.897,0.498-1.132,0.715h-0.073c0.035-0.037,0.073-0.073,0.11-0.107c-0.072-0.041-0.169-0.093-0.238-0.131
		c0.035-0.13,0.18-0.221,0.273-0.309c0-0.093,0-0.183-0.034-0.239c-0.037-0.092-0.258-0.036-0.347-0.071
		c-0.114,0-0.227,0.015-0.296,0.036c-0.018,0.125-0.018,0.091,0.023,0.202c-0.114,0.089-0.242,0.145-0.406,0.215
		c-0.091,0.403-0.199,1.004-0.477,1.225c0.02,0.126,0.02,0.125,0.093,0.165c-0.034,0.107-0.052,0.092-0.143,0.144
		c0,0-0.495-0.037-0.607,0.037c-0.197,0.058-0.268,0.348-0.271,0.584c-0.056,0.001-0.093,0.018-0.146,0.02
		c-0.039,0.052-0.238-0.09-0.345-0.129c-0.313-0.148-1.004-0.18-1.264-0.38h-0.071c0,0.274,0.093,1.056,0.217,1.237
		c-0.489,0.442-2.421,0.601-3.137,0.274c-0.474-0.218-0.75-0.727-1.056-1.13c-0.513-0.677-1.19-1.421-2.026-1.772
		c-0.513-0.233-1.134-0.239-1.753-0.382c-0.332-0.075-0.882,0.093-1.154-0.071c-0.726-0.003-0.782,0.53-1.202,0.82
		c-0.004,0.307-0.162,0.618-0.071,0.93c0.108,0.402,0.491,0.621,0.724,0.916c0.862,1.149,2.177,1.821,3.802,2.224
		c0.511,0.058,1.023,0.126,1.548,0.167h0.88c0.422,0.091,1.02-0.059,1.479,0.035c0.435,0.092,1.076,0.31,1.643,0.181
		c0.694-0.163,1.076-0.693,1.623-0.857c0.277-0.088,0.639,0.165,0.989,0.165c0.16-0.129,0.292-0.221,0.418-0.402
		c0.603-0.016,1.534-0.072,1.917-0.31c0.069-0.076,0.144-0.163,0.201-0.238c0.308-0.22,0.641-0.471,1.002-0.619
		c0.784-0.345,1.664-0.441,2.466-0.786c1.004-0.418,1.696-1.148,2.503-1.749c0.325-0.223,0.747-0.441,1.001-0.75
		c0.038,0.054,0.056,0.107,0.073,0.179c0.862,0.001,1.315,1.171,1.294,2.083h-0.105c-0.075-0.146-0.145-0.236-0.239-0.346h-0.035
		c0.11,0.421,0.31,0.75,0.453,1.202c0.036,0.096,0.127,0.312,0.036,0.441c-0.018,0.036-0.032,0.071-0.036,0.107
		c-0.104,0.02-0.256,0.058-0.347,0c-0.126,0.023-0.126,0.058-0.18,0.167h-0.093c-0.016-0.077-0.016-0.091-0.037-0.145
		c-0.018-0.003-0.02-0.018-0.035-0.023H152.6c0.038,0.129,0.199,0.37,0.071,0.546c-0.055,0.128-0.108,0.133-0.238,0.166
		c-0.021,0.058-0.016,0.039-0.032,0.074c0.017,0.2,0.127,0.347,0.271,0.438c-0.018,0.203-0.091,0.241-0.144,0.383
		c-0.058,0.149,0.051,0.182,0,0.333c-0.075,0.327-0.296,0.692-0.404,1.021c-0.054,0.218-0.091,0.437-0.145,0.657
		c-0.145,0.251-0.438,0.438-0.606,0.692c-0.474,0.642-0.98,1.39-1.31,2.153c-0.476,1.077-0.936,2.249-1.298,3.414
		c-0.02,0.404-0.055,0.822-0.073,1.225c-0.145,0.51-0.308,1.095-0.439,1.643c-0.057,0.418-0.124,0.841-0.178,1.26
		c-0.072,0.307-0.041,0.839,0,1.061v0.725c0.071,0.333,0.052,0.712,0.143,1.06c0.093,0.385,0.148,0.839,0.31,1.188
		c0.091,0.221,0.223,0.49,0.308,0.729c0.242,0.768-0.232,1.586-0.654,1.916c0.072,0.021,0.02,0.003,0.108,0
		c0,1.224-0.071,2.322-0.31,3.342c-0.11,0.438-0.073,0.892-0.182,1.298c-0.11,0.493-0.075,1.183-0.069,1.749l0.035,0.474
		c-0.165,0.584-0.713,1.842-0.238,2.486c0.312,0.433,1.402,0.45,2.025,0.584h0.418c0.298,0.073,1.538,0.18,1.846,0.035
		c0.201-0.076,0.325-0.368,0.439-0.548c0.197-0.254,0.507-0.552,0.621-0.842c-0.166-0.69,0-1.515-0.166-2.226
		c-0.126-0.527-0.055-1.187-0.181-1.713c-0.004-0.275-0.02-0.549-0.022-0.822c-0.018-0.058-0.124-0.183-0.14-0.238
		c-0.021-0.33-0.023-0.659-0.039-0.987c-0.073-0.309-0.203-0.876-0.097-1.297c0.24-1.004,0.37-1.935,0.136-2.974
		c-0.147-0.637,0.142-1.204,0.234-1.643c0.054-0.238-0.13-0.531-0.167-0.715c-0.034-0.195,0.095-0.253,0.13-0.38
		c0.148-0.51-0.254-0.819-0.13-1.296c0.147-0.586,0.528-0.769,0.895-1.13c0.145-0.145,0.369-0.548,0.168-0.822
		c-0.114-0.164-0.422-0.167-0.479-0.382c-0.092-0.259,0.166-0.512,0.237-0.642c0.292-0.472,0.714-0.948,0.861-1.499
		c0.069-0.271-0.071-0.542-0.095-0.725c-0.126-0.497,0.004-1.134,0.164-1.501c0.368-0.877,1.355-1.914,2.1-2.462
		c0.257-0.259,0.515-0.529,0.787-0.789c0.219-0.164,0.511-0.309,0.712-0.509h0.143c0.037,0.2-0.055,0.438,0,0.641
		c0.021,0.125,0.13,0.181,0.166,0.251c-0.016,0.206-0.018,0.424-0.036,0.642c-0.018,0.568-0.089,1.245-0.199,1.788
		c-0.02,0.312-0.053,0.624-0.074,0.95c-0.073,0.348-0.203,1.499-0.108,1.952c0.089,0.31,0.183,0.657,0.453,0.786
		c0.351,0.162,0.807,0.073,1.027,0.367c0.361,0.493,0.271,1.279,0.489,1.953c0.059,0.235,0.26,0.42,0.331,0.618l-0.095,1.331
		c0.077,0.259,0.294,0.512,0.369,0.824c0.107,0.404-0.185,1.569-0.274,1.938c-0.147,0.657-0.058,2.261,0.071,2.844
		c0.072,0.294,0.016,0.622,0.072,0.893v0.641c0,0.786-0.033,1.499-0.167,2.155c-0.034,0.33-0.052,0.659-0.071,0.987
		c-0.033,0.073-0.128,0.146-0.178,0.202c-0.126,0.2-0.185,0.399-0.31,0.584c-0.08,0.14-0.238,0.274-0.296,0.415
		c-0.13,0.529-0.258,1.04-0.384,1.57c-0.146,0.455-0.221,0.952-0.383,1.441c-0.035,0.11-0.199,0.406-0.164,0.548
		c0.069,0.365,0.294,0.857,0.476,1.153c0.509,0.11,2.244,0.474,2.68,0.071c0.259-0.106,0.53-1.625,0.274-2.023
		c0.037-0.296,0.312-0.238,0.511-0.37c0.201-0.128,0.404-0.434,0.479-0.675c0.034-0.836,0.071-1.643,0.108-2.463
		c0.11-0.472,0.106-1.732,0-2.191v-0.857c-0.238-1.006-0.018-2.334-0.24-3.341c-0.016-0.512-0.031-1.024-0.037-1.549
		c-0.087-0.367-0.108-1.28,0.037-1.605c-0.164-0.457-0.105-1.062-0.217-1.571v-1.296c0-0.624-0.016-1.277,0.11-1.81
		c0.071-0.329,0-0.692,0.069-0.999c0.006-0.515,0.021-1.045,0.037-1.573c0.11-0.476,0.11-1.804,0-2.283
		c-0.016-0.474-0.031-0.951-0.037-1.44c-0.197-0.819-0.127-1.752-0.309-2.521c-0.014-0.585-0.019-1.168-0.034-1.751
		c-0.384-1.569-0.585-4.271-1.643-5.057c-0.238-0.166-0.494-0.256-0.786-0.381c-0.073-0.292,0.018-0.675,0.093-1.023v-1.023
		c-0.017-0.057-0.075-0.382-0.071-0.44c0.033-0.109,0.199-0.292,0.252-0.417c0.108-0.46,0.22-0.931,0.332-1.405
		c-0.168-0.15-0.766-0.566-0.547-0.843c0.143-0.178,0.4-0.124,0.582-0.252c0.057-0.038,0.089-0.147,0.146-0.202
		c-0.018-0.277-0.112-0.367-0.181-0.569c0.256-0.142,0.38-0.309,0.548-0.525c-0.021-0.169-0.073-0.276-0.13-0.404
		c-0.203-0.017-0.418-0.021-0.621-0.037c0-0.234,0.035-0.475,0.145-0.62c0.073-0.037,0.238,0.128,0.273,0.238h0.095
		c0,0.108,0.018,0.147,0.035,0.216c0.11,0,0.182-0.017,0.238-0.036c0.05-0.202,0.106-0.493,0.034-0.69
		c-0.052-0.149-0.308-0.384-0.237-0.606c0.02-0.074,0.146-0.16,0.168-0.215c0.089-0.132,0.108-0.403,0.145-0.548
		c0.036-0.477,0.089-0.969,0.129-1.462c0.09-0.295,0.271-0.675,0.144-1.096c-0.256-0.804-0.733-1.458-1.024-2.226
		c-0.091-0.218-0.201-0.765-0.039-0.986c0.112-0.289,0.695-0.437,0.954-0.583c0.366-0.185,0.745-0.422,1.095-0.606
		c0.183-0.091,0.455-0.144,0.599-0.287c0.095-0.095,0.095-0.31,0.203-0.405c-0.002-0.107-0.018-0.178-0.035-0.235
		c-0.201,0.001-0.349,0.071-0.441,0.166h-0.036c0.017-0.039,0.038-0.129,0.058-0.166V17.579z"/>
	<path style="fill:#FFFFFF;" d="M126.348,38.57c-0.143-0.386-0.346-0.806-0.402-1.263c-0.016-0.017-0.02-0.033-0.034-0.034
		c-0.181,0.019-0.312,0.092-0.477,0.129h-0.342c-0.13,0.052-0.753,0.657-0.881,0.786c-0.271-0.038-0.509-0.167-0.747-0.238
		c-0.551-0.149-1.041-0.166-1.499-0.369c-0.598-0.326-1.185-0.638-1.769-0.963c-0.308-0.131-0.623-0.222-0.966-0.31
		c-0.278-0.02-0.584-0.041-0.876-0.059c-0.24-0.105-0.554-0.42-0.712-0.619c-0.039-0.053-0.021-0.11-0.074-0.145
		c-0.241-0.056-0.495-0.11-0.746-0.165c-0.171-0.2-0.333-0.386-0.511-0.583c-0.315-0.237-0.662-0.418-0.989-0.642
		c-0.694-0.545-0.655-1.84-1.389-2.333c-0.434-0.292-0.966-0.314-1.532-0.478c-0.989-0.274-2.082-0.4-2.866-0.893
		c-2.26-1.404-2.12-4.542-3.027-7.283c-0.057-0.186,0.379-1.132,0.45-1.333c0.098-0.292,0.169-1.043,0.297-1.26
		c0.067-0.474,0.854-0.476,1.259-0.619c0.637-0.205,0.619-0.273,0.964-0.751c0.077-0.125,0.207-0.182,0.263-0.344
		c0.819,0,1.254-0.332,1.769-0.62c0.292-0.113,0.565-0.24,0.857-0.366c0.801-0.568,1.112-1.498,1.641-2.358
		c0.532-0.894,1.023-1.804,1.39-2.88c0.271-0.806,0.491-1.61,0.746-2.393c0.095-0.292,0.106-0.657,0.275-0.892
		c-0.039-0.148-1.113-0.623-1.331-0.643c-0.26-1.165-1.355-1.606-2.247-2.154c-0.385-0.238-0.839-0.455-1.225-0.713
		c-0.272-0.197-0.418-0.528-0.783-0.655c-0.751-0.255-1.993-0.22-2.792-0.036c-0.42,0.108-0.769,0.089-1.153,0.203
		c-1.422,0.457-2.556,1.02-3.612,1.822c-0.603,0.457-1.185,1.37-1.59,2.046c-0.434,0.709-0.238,1.022-1.057,1.44
		c0.069,0.184,0.491,0.662,0.639,0.785c-0.147,0.607-0.695,1.738,0.217,2.012c0.036,0.363,0.021,0.929,0.166,1.237
		c0.197,0.442,0.783,0.442,1.151,0.715c0.747,0.548,0.858,1.881,1.879,2.153c-0.055,1.022-0.436,1.774-0.751,2.536
		c-0.674,1.532-1.438,2.738-2.076,4.308c-0.24,0.57-0.351,1.206-0.548,1.881c-0.056,0.186-0.203,0.497-0.131,0.785
		c0.11,0.457,0.239,0.986,0.365,1.441c0.11,0.367,0.184,0.679,0.274,1.023c0.057,0.186,0.016,0.422,0.106,0.583
		c-0.014,0.753-0.913,0.714-1.128,1.261c-0.146,0.385-0.021,0.933-0.164,1.332c-0.039,0.094-0.163,0.131-0.201,0.202
		c-0.018,0.109-0.035,0.204-0.037,0.311c-0.075,0.236-0.18,0.511-0.239,0.749c-0.088,0.309,0.04,0.529,0.075,0.75
		c-0.106,0.218-0.149,0.544-0.217,0.786c-0.093,0.419,0.054,1.038-0.059,1.439c-0.056,0.201-0.214,0.418-0.274,0.62
		c-0.052,0.223-0.091,0.457-0.143,0.679c-0.037,0.125-0.146,0.38-0.096,0.452c0.039,0.202,0.187,0.313,0.333,0.405
		c0,0.109,0.016,0.22,0,0.236c-0.021,0.274-0.312,0.347-0.513,0.454c-0.036,0.165-0.126,0.456,0,0.608
		c-0.052,0.253-0.637,0.524-0.367,0.928v0.071c0.184,0,0.53,0.038,0.643-0.037h0.036c0,0.112,0.016,0.274-0.036,0.333
		c0,0.145,0,0.289-0.037,0.38h-0.238c-0.166-0.182-0.236-0.273-0.329-0.474c-0.089,0.002-0.089,0.017-0.145,0.035
		c-0.182,0.477,0.036,0.822,0.036,1.334c-0.071,0.056-0.056,0.093-0.166,0.129c0.095,0.177,0.238,0.31,0.402,0.416
		c0,0.494-0.255,0.606-0.272,1.059c-0.329,0.023-0.256,0.333-0.402,0.547c0.052,0.074,0.071,0.094,0.166,0.13
		c0.017,0.035,0,0.018,0.035,0c0.182-0.036,0.385-0.239,0.474-0.365c0.112,0,0.201,0,0.274,0.033c0,0.261-0.002,0.553-0.034,0.786
		c-0.035-0.033-0.041-0.068-0.059-0.107c-0.034,0.036-0.056,0.092-0.071,0.13c0.055,0.018,0.055,0.033,0.13,0.036
		c0,0.383,0.016,1.11-0.13,1.333c-0.075,0.143-0.021-0.038-0.18,0.036c-0.057,0.074-0.112,0.145-0.167,0.203
		c0.035,0.254,0.181,0.289,0.236,0.452c0,0.292-0.02,0.568-0.035,0.86c-0.075,0-0.093,0-0.131,0.035
		c-0.074,0.054-0.07,0.367-0.165,0.512c0.002,0.221,0.074,0.184,0.13,0.346c0.091,0.005,0.093,0.038,0.166,0h0.072
		c0.018,1.407,0.42,2.723,0.856,3.782c0.219,0.545,0.351,1.037,0.569,1.547c0.688,1.554,1.621,2.997,2.554,4.311
		c0.398,0.532,0.857,1.04,1.26,1.572c0.184,0.238,0.507,0.421,0.656,0.712c-0.672-0.312-1.202-0.822-1.81-1.189
		c-1.11-0.69-2.388-1.205-3.707-1.643c-0.526-0.18-1.051-0.18-1.604-0.345c-0.327-0.144-0.656-0.274-0.983-0.418
		c-0.15-0.039-0.381-0.039-0.513-0.059c-1.039-0.238-2.443,0.604-2.958,0.951c-0.491,0.326-1.128,0.783-1.461,1.239
		c-0.371,0.49-0.747,0.978-1.104,1.489c0-2.055,0-4.11,0-6.179c0-0.55,0-1.113,0-1.679c0-0.24,0.02-0.603-0.016-0.824
		c-0.039-0.22,0.033-0.512-0.004-0.727c-0.014-0.73-0.014-1.445-0.02-2.173c-0.033-0.147,0-0.347,0-0.512
		c-0.016-0.291-0.016-0.601-0.016-0.895c-0.018-0.342-0.036-0.836,0.016-1.148c0-0.165,0-0.33,0-0.495
		c0.023-0.146-0.016-0.329,0.02-0.506c0.021-0.167,0.039-0.678,0.004-0.86c-0.018-0.112,0.016-0.259-0.004-0.365
		c0-0.114,0-0.238,0-0.366c-0.02-0.093,0.004-0.241-0.014-0.364c-0.006-0.053-0.021-0.348-0.006-0.401
		c0.006-0.096,0.059-0.256,0.039-0.421c-0.02-0.126-0.016-0.294-0.033-0.42c0-0.071,0-0.13,0-0.203
		c-0.021-0.127,0.014-0.271-0.006-0.416c-0.035-0.165-0.033-0.368-0.033-0.568c0-0.333,0-0.677,0-1.02c0-1.592,0-3.196,0-4.788
		c0-1.076,0-2.149,0-3.226c0.053-0.257,0-0.566,0.053-0.823c0-0.059,0-0.13,0-0.201c0.02-0.093,0.037-0.364,0.02-0.458
		c-0.016-0.054-0.039-0.127-0.039-0.166c-0.016-0.051,0-0.363,0.006-0.417c0.018-0.11-0.006-0.273,0.014-0.366
		c0.02-0.109-0.014-0.256,0.004-0.349c0-0.126,0-0.251,0-0.379c0.018-0.095,0.033-0.497,0.016-0.606
		c-0.039-0.235,0-0.524-0.039-0.749c0-0.088,0-0.163,0-0.253c-0.033-0.148,0.006-0.331-0.016-0.494c-0.02-0.163-0.02-0.691,0-0.84
		c0.035-0.219-0.02-0.528,0.016-0.747c0-0.477,0-0.966,0-1.444c0.02-0.129,0.006-0.326,0.006-0.476c0-0.251,0.014-0.489,0.014-0.728
		c0-0.658,0.02-1.316,0.02-1.993c0-3.523,0-7.046,0-10.568c0-0.928,0-1.842,0-2.757c0-0.251,0-0.488,0-0.727
		c0-0.126,0.002-0.273-0.016-0.366c-0.018-0.125,0-0.239-0.018-0.348c0-0.053,0-0.11,0-0.179c-0.058-0.313,0-0.712-0.058-1.026
		c0-0.237-0.016-0.473-0.02-0.708c-0.057-0.33,0-0.714-0.057-1.041c-0.017-0.111,0-0.24-0.017-0.346
		c-0.018-0.112,0-0.24-0.018-0.348c-0.035-0.165,0-0.364-0.035-0.512c0-0.057,0-0.125,0-0.181c-0.018-0.149,0-0.35-0.021-0.512
		c0-0.057,0-0.112,0-0.181c-0.034-0.218-0.012-0.477-0.05-0.695c-0.02-0.144,0.032-0.344-0.02-0.44
		c-0.073-0.072-0.276-0.089-0.383-0.142c-0.183-0.074-0.384-0.146-0.567-0.203c-0.148,0-0.308,0-0.474,0c-0.112,0-0.24,0-0.366,0
		c-0.199,0.056-0.418,0.056-0.619,0.126c-0.058,0.019-0.223,0.075-0.296,0.055c-0.255-0.072-0.544-0.105-0.797-0.181
		c-0.242,0-0.497,0-0.751,0c-0.493,0-0.967-0.002-1.37,0.11c-0.129,0.038-0.257,0.034-0.385,0.071c-2.173,0-4.354,0-6.524,0
		c-1.078,0-2.146,0-3.213,0c-0.084,0.021-0.167,0.128-0.257,0.164c-0.967-0.052-1.937-0.089-2.913-0.142
		c-0.173-0.001-0.345-0.002-0.518-0.002c-0.074-0.019-0.182,0.002-0.266-0.016c-0.137-0.038-0.328-0.004-0.455,0.018
		c-0.118,0.036-0.246,0.017-0.348,0.052c-0.064,0-0.127,0.002-0.19,0.002c-0.158,0.053-0.357,0.034-0.521,0.087
		c-1.041,0-2.081,0-3.122,0c-0.957,0-1.908,0-2.865,0c-0.3,0.076-0.612,0.092-0.904,0.184c-0.093,0.003-0.183,0.021-0.282,0.036
		c-0.102,0.037-0.22,0.036-0.329,0.059c-0.046,0.018-0.128,0.055-0.184,0.035c-0.319-0.094-0.646-0.22-0.966-0.313
		c-0.073-0.034-0.192,0.003-0.256,0.024c-0.174,0.05-0.339,0.015-0.495,0.069c-0.136,0.018-0.272,0.02-0.401,0.037
		c-0.1,0.036-0.217,0.018-0.327,0.054c-0.311,0.077-0.657,0.039-0.967,0.13c-0.365,0-0.74,0-1.097,0c-0.32,0-0.646,0-0.968,0
		c-0.235,0-0.456-0.017-0.656,0.052c-0.119,0.023-0.246,0.003-0.355,0.038c-0.062,0-0.12,0.001-0.182,0.017
		c-0.139,0.038-0.31,0.021-0.447,0.057c-0.95,0-1.9,0-2.85,0c-1.397,0-2.794,0-4.197,0c-0.575,0.056-1.15,0.125-1.717,0.181
		c-0.008-0.053-0.02-0.087-0.027-0.129c-0.349,0-0.775,0.039-1.077-0.051c-0.154-0.036-0.318,0-0.458-0.038
		c-0.036,0-0.079,0-0.117,0c-0.218-0.071-0.466-0.017-0.676-0.074c-1.333,0-2.666,0-3.997,0c-0.739,0-1.47,0-2.21,0
		c-0.437,0-0.91,0.036-1.285-0.071c-0.056,0-0.121-0.001-0.183-0.017c-0.193-0.056-0.421-0.022-0.612-0.077
		c-0.538,0-1.087,0-1.632,0c-0.485,0-0.979,0.021-1.381-0.09c-0.19-0.055-0.391-0.02-0.574-0.073
		c-0.081-0.001-0.165-0.018-0.246-0.019c-0.235-0.071-0.501-0.052-0.73-0.109c-0.238-0.074-0.457,0-0.647,0.073
		c-0.219,0.089-0.449,0.146-0.667,0.218c-0.055,0.017-0.127-0.018-0.173-0.034c-0.11-0.038-0.227-0.038-0.338-0.072
		c-0.091-0.004-0.185-0.022-0.274-0.039c-0.291-0.089-0.611-0.093-0.904-0.182c-1.786,0-3.567,0-5.349,0
		c-0.345,0-0.71,0.02-0.995-0.055c-0.118-0.017-0.237-0.021-0.362-0.036c-0.103-0.021-0.23-0.003-0.349-0.039
		c-0.118-0.034-0.311-0.055-0.445-0.019c-0.257,0.002-0.52,0.017-0.777,0.019c-0.977,0.039-1.953,0.09-2.931,0.13
		c-0.081-0.037-0.163-0.13-0.246-0.164c-0.575,0-1.149,0-1.725,0c-1.131,0-2.255,0-3.386,0c-1.543,0-3.086,0-4.636,0
		C6.195,0.126,6.039,0.142,5.884,0.09C5.557-0.004,5.165,0,4.762,0C4.434,0,4.106,0,3.778,0C3.541,0.07,3.283,0.092,3.039,0.164
		C2.956,0.183,2.7,0.107,2.626,0.09c-0.056-0.016-0.11-0.018-0.174-0.021C2.225-0.001,1.951,0,1.667,0C1.53,0,1.386,0,1.249,0
		c-0.148,0.051-0.32,0.109-0.468,0.179C0.727,0.196,0.672,0.2,0.617,0.217C0.528,0.252,0.428,0.308,0.328,0.311
		C0.273,0.544,0.326,0.876,0.281,1.112c0,0.071,0,0.125,0,0.181C0.263,1.386,0.273,1.533,0.255,1.639c0,0.057,0,0.127,0,0.183
		C0.237,1.931,0.262,2.045,0.244,2.169C0.225,2.264,0.245,2.391,0.225,2.515C0.208,2.61,0.227,2.738,0.208,2.861
		c-0.046,0.26-0.001,0.588-0.047,0.859C0.153,3.958,0.144,4.18,0.134,4.416C0.088,4.688,0.126,5.017,0.081,5.276
		C0.08,5.401,0.08,5.512,0.072,5.638C0.042,5.857,0.071,6.113,0.034,6.332c0,0.056,0,0.112,0,0.168
		C-0.01,6.754,0.008,7.082,0.008,7.374c0,0.51,0,1.019,0,1.515c0,2.608,0,5.203,0,7.811c0,1.26,0,2.521,0,3.78
		c0,0.4,0,0.801,0,1.201c0,0.186-0.019,0.422,0.008,0.588c0,0.183,0,0.361,0,0.527c0.009,0.547,0.018,1.08,0.026,1.625
		c0.002,0.437,0.004,0.875,0.01,1.313c0.001,0.184,0.002,0.366,0.01,0.548c0,0.093,0,0.184,0,0.277
		c0.026,0.165,0.018,0.564,0.008,0.712c-0.016,0.178,0.002,0.345-0.018,0.506c-0.008,0.237-0.01,0.477-0.019,0.716
		c-0.026,0.146,0.011,0.328-0.018,0.49c-0.019,0.146-0.019,0.495,0,0.64c0,0.056,0,0.128,0,0.199c0,0.182-0.009,0.402,0.018,0.569
		c0.002,0.237,0.009,0.491,0.009,0.731c-0.018,0.105-0.054,0.256-0.034,0.399c0.054,0.313-0.001,0.695,0.054,1.006
		c0,0.072,0,0.143,0,0.215c0.008,0.055-0.008,0.133,0.008,0.203c0.011,0.094,0.002,0.239,0.002,0.35c0,0.235,0,0.474,0,0.727
		c0,0.843,0,1.699,0,2.555c0,1.443,0,2.887,0,4.343c0,0.224,0,0.459,0,0.697c0,0.112,0.009,0.256-0.002,0.348
		c-0.01,0.071,0,0.164-0.008,0.215c-0.026,0.133,0.001,0.292-0.019,0.406c0,0.071,0,0.129,0,0.198c-0.034,0.185,0,0.423-0.034,0.621
		c-0.019,0.145,0.017,0.292,0.034,0.385c0,0.253-0.007,0.495-0.009,0.749c-0.027,0.162-0.018,0.385-0.018,0.562
		c0,0.059,0,0.129,0,0.188c-0.027,0.183-0.017,0.712,0.009,0.893c0.009,0.238,0.011,0.477,0.018,0.728
		c0.027,0.146-0.009,0.314,0.019,0.479c0.018,0.126,0.008,0.253,0.008,0.383c-0.007,0.292-0.008,0.583-0.008,0.875
		c-0.008,0.235-0.009,0.459-0.01,0.691c0,0.148,0.01,0.328-0.01,0.441c0,0.474-0.007,0.949-0.009,1.438
		c-0.034,0.203,0.028,0.497-0.009,0.713c-0.025,0.149-0.009,0.385-0.009,0.564c0,0.28-0.008,0.604-0.008,0.914
		c0,1.463,0,2.938,0,4.401c0,3.415,0,6.845,0,10.26c0.019,0.105-0.002,0.233,0.017,0.346c0.02,0.11,0,0.238,0.018,0.362
		c0.064,0.367,0.002,0.841,0.064,1.209c0.01,0.18,0.011,0.345,0.019,0.513c0.019,0.108,0,0.234,0.019,0.347
		c0.055,0.326,0,0.712,0.055,1.039c0.008,0.127,0.009,0.239,0.009,0.361c0.037,0.221,0.009,0.478,0.039,0.694
		c0,0.059,0,0.112,0,0.167c0.033,0.162,0,0.361,0.026,0.526c0.019,0.109-0.001,0.224,0.017,0.348
		c0.028,0.165,0.037,0.439,0.036,0.621c0.094,0.018,0.193,0.071,0.284,0.095c0.219,0.087,0.447,0.163,0.667,0.232
		c0.135,0,0.272,0,0.409,0c0.285,0,0.556,0,0.786-0.073c0.056-0.016,0.109-0.018,0.172-0.033c0.064-0.018,0.312-0.091,0.374-0.073
		c0.257,0.056,0.548,0.106,0.804,0.18c0.256,0,0.512,0,0.768,0c0.474,0,0.933,0.02,1.315-0.106C6.059,74.784,6.222,74.8,6.37,74.75
		c1.533,0,3.064,0,4.6,0c1.142,0,2.29,0,3.433,0c0.564,0,1.121,0,1.687,0c0.074-0.053,0.155-0.093,0.23-0.147
		c0.062-0.02,0.437,0.004,0.492,0.02c0.091,0,0.174,0,0.263,0c0.229,0.071,0.548-0.02,0.776,0.052
		c0.34,0.002,0.687,0.019,1.024,0.023c0.073,0.033,0.174-0.004,0.257,0.014c0.089,0.021,0.226,0.021,0.309,0.021
		c0.071,0,0.138,0,0.209,0c0.073,0.018,0.174-0.002,0.256,0.016c0.147,0.036,0.401,0.02,0.53-0.016
		c0.118-0.035,0.245-0.002,0.347-0.039c0.063-0.014,0.119-0.014,0.174-0.018c0.164-0.036,0.363-0.019,0.521-0.073
		c1.067,0,2.135,0,3.202,0c0.94,0,1.88,0,2.819,0c0.158-0.052,0.339-0.037,0.504-0.093c0.164-0.052,0.338-0.052,0.511-0.104
		c0.21-0.058,0.465-0.095,0.677-0.132c0.062-0.018,0.229,0.074,0.291,0.093c0.146,0.039,0.292,0.09,0.439,0.128
		c0.09,0.035,0.208,0.091,0.299,0.108c0.821-0.108,1.645-0.221,2.466-0.329c0.812,0,1.633,0,2.444,0
		c0.139-0.05,0.303-0.032,0.439-0.071C35.63,74.2,35.686,74.2,35.749,74.2c0.11-0.035,0.236-0.016,0.355-0.054
		c0.191-0.053,0.411-0.037,0.64-0.037c0.309,0,0.619,0,0.929,0c1.299,0,2.603,0,3.907,0c0.429,0,0.858,0,1.28,0
		c0.218,0,0.483,0.035,0.675-0.033c0.036,0,0.073,0,0.117,0c0.139-0.036,0.311-0.004,0.457-0.04c0.035,0,0.074,0,0.109,0
		c0.183-0.055,0.402-0.02,0.584-0.072c0.071-0.017,0.164,0.02,0.22-0.017c0.027,0,0.071,0,0.083,0.002
		c0.018,0.033,0.025,0.072,0.026,0.108c0.346,0,0.759-0.036,1.059,0.053c0.146,0.037,0.317,0.002,0.456,0.037
		c0.037,0,0.081,0,0.118,0c0.21,0.071,0.465,0.019,0.677,0.077c1.333,0,2.674,0,4.006,0c0.738,0,1.471,0,2.21,0
		c0.428,0,0.903-0.039,1.276,0.067c0.057,0,0.119,0.004,0.175,0.004c0.199,0.069,0.427,0.033,0.621,0.089c0.545,0,1.078,0,1.615,0
		c0.484,0,0.994-0.034,1.404,0.089c0.183,0.057,0.394,0.021,0.567,0.078c0.063,0,0.117,0,0.172,0.015
		c0.255,0.074,0.548,0.037,0.805,0.11c0.055,0.004,0.118,0.004,0.173,0.018c0.184,0.055,0.346-0.019,0.5-0.091
		c0.101-0.02,0.202-0.052,0.303-0.089c0.111-0.041,0.247-0.093,0.357-0.13c0.045-0.018,0.117,0.021,0.154,0.037
		c0.117,0.037,0.235,0.035,0.338,0.071c0.1,0.004,0.191,0.02,0.283,0.037c0.311,0.091,0.648,0.11,0.958,0.201
		c0.585,0,1.168,0,1.762,0c1.06,0,2.128,0,3.194,0c0.245,0,0.492,0,0.746,0c0.202,0,0.404-0.016,0.576,0.037
		c0.121,0.034,0.246,0.015,0.348,0.038c0.164,0.055,0.365,0.018,0.528,0.071c0.073,0.02,0.35,0.002,0.421-0.017
		c0.074-0.019,0.182,0.017,0.256-0.004c0.044,0,0.091,0,0.136,0c0.118,0,0.267,0.004,0.375-0.033c0.172,0,0.348,0,0.511-0.002
		c0.109-0.037,0.263-0.02,0.375-0.02c0.045,0,0.099,0,0.145,0c0.066-0.02,0.174,0.004,0.247-0.018
		c0.073-0.017,0.183,0.018,0.264-0.002c0.238-0.071,0.54,0.02,0.768-0.05c0.174,0,0.347-0.002,0.521-0.002
		c0.081,0.037,0.162,0.093,0.236,0.146c0.857,0,1.716,0,2.574,0c2.382,0,4.765,0,7.155,0c0.128,0.035,0.256,0.02,0.386,0.055
		c0.416,0.128,0.911,0.108,1.402,0.108c0.26,0,0.53,0,0.785,0c0.238-0.071,0.515-0.108,0.767-0.163
		c0.073-0.017,0.311,0.053,0.385,0.074c0.057,0.002,0.11,0.018,0.163,0.018c0.223,0.073,0.515,0.071,0.805,0.071
		c0.143,0,0.271,0,0.418,0c0.128-0.051,0.274-0.104,0.404-0.161c0.054-0.002,0.11-0.019,0.164-0.038
		c0.108-0.041,0.238-0.108,0.349-0.11c0-0.217,0-0.455,0.033-0.637c0.022-0.112,0-0.238,0.022-0.349c0-0.054,0-0.111,0-0.166
		c0.029-0.162,0.012-0.363,0.033-0.526c0-0.054,0-0.112,0-0.182c0.035-0.221,0-0.476,0.037-0.694
		c0.016-0.108,0.016-0.221,0.016-0.349c0.056-0.365,0-0.822,0.058-1.205c0.016-0.165,0.016-0.347,0.02-0.513
		c0.067-0.382,0-0.84,0.067-1.219c0.02-0.114,0-0.242,0.02-0.351c0.02-0.124,0-0.252,0.02-0.345c0-0.511,0-1.021,0-1.532
		c0.015,0.017,0.034,0.033,0.046,0.05h0.072c0.294-0.599,0.663-1.181,0.951-1.819c0.712-1.663,1.113-3.327,3.028-3.799
		c0.443-0.111,0.789,0.127,1.021,0.271c0.292,0.183,0.554,0.33,0.846,0.515c0.215,0.142,0.434,0.36,0.675,0.452
		c0.836,0.312,1.366-0.366,1.877-0.548c0.037-0.033,0.004-0.018,0.071-0.035c0.092,0.129,0.221,0.241,0.299,0.382
		c0.249,0.368,0.419,0.972,0.818,1.189c0.328-0.477,1.186-0.33,1.771-0.203c0.306,0.058,0.544-0.091,0.747-0.144
		c0.147,0.165,0.489,0.38,0.69,0.454c0.24-0.069,0.753-0.2,1.009-0.036c0.346,0.22,0.64,0.619,1.021,0.857
		c0.69,0.403,1.623,0.457,2.39,0.786c0.529,0.222,0.933,0.589,1.387,0.88c0.223,0.144,0.476,0.25,0.68,0.38
		c0.087,0.327,0.253,1.258,0.417,1.499c0.108,0.124,0.221,0.232,0.331,0.347c0.089,0.13,0.142,0.292,0.25,0.416
		c0.006,0.006,0.021,0.021,0.023,0.034c0.231-0.34,0.547-0.58,0.82-0.854c0.344-0.366,0.728-0.801,0.986-1.238
		c0.128-0.203,0.238-0.477,0.306-0.715c0.041-0.164-0.014-0.383,0.075-0.513v-0.854c-0.184-0.077-0.365-0.165-0.547-0.239
		c-0.366-0.203-0.769-0.456-1.165-0.642c-0.153-0.091-0.426-0.108-0.534-0.252c-1.842-2.227-3.906-4.125-5.454-6.663
		c-0.515-0.875-0.751-1.864-1.008-3.012c-0.11-0.457-0.106-1.316,0-1.772c0.002-0.215,0.02-0.418,0.021-0.618
		c0.197-0.804,0.292-1.608,0.547-2.356c0.258-0.786,0.49-1.608,0.784-2.393c0.129-0.36,0.348-0.781,0.381-1.201
		c2.502,0.035,5.005,0.073,7.522,0.106h2.136c0.329,0.003,0.658,0.021,0.987,0.038c0.422,0.112,1.077,0.695,1.331,1.022
		c0.348,0.459,0.787,0.968,0.948,1.607c0.112,0.404-0.091,0.86-0.179,1.151c-0.11,0.474-0.004,1.075,0.106,1.442
		c0.185,0.549,0.368,1.111,0.619,1.606c0.074,0.164,0.331,0.512,0.31,0.73c-0.052,0.365-0.418,0.53-0.509,0.842
		c-0.235,0.36,0.24,0.509,0.13,0.857c-0.056,0.164-0.24,0.164-0.347,0.274c-0.075,0.09-0.058,0.291-0.131,0.382
		c-0.068,0.036-0.035,0.002-0.126,0v0.509c0.071,0.127,0.329,0.109,0.126,0.368c0.004,0.216,0.04,0.271,0.237,0.29
		c-0.091,0.421-0.233,1.131,0.169,1.354c-0.023,0.563-0.406,0.983-0.406,1.714h-0.072c-0.017-0.056-0.019-0.129-0.019-0.238
		c-0.035,0.02-0.055,0.041-0.088,0.073c-0.077,0-0.148,0-0.188-0.036c-0.034-0.056-0.018-0.109,0.025-0.167
		c0-0.251-0.043-0.253-0.134-0.38c-0.235,0.036-0.327,0.18-0.509,0.274c-0.02,0.056-0.016,0.036-0.036,0.071
		c0.021,0.129,0.036,0.112,0.127,0.165c0,0.2-0.038,0.273-0.162,0.347c0.052,0.495,0.377,0.768,0.379,1.354
		c0.169,0.051,0.292,0.071,0.37,0h0.034c-0.02,0.127-0.069,0.292-0.131,0.383v0.071c-0.106-0.054-0.122-0.145-0.215-0.2
		c-0.004-0.015-0.02-0.036-0.037-0.038c-0.13,0.129-0.273,0.273-0.4,0.406c0,0.238,0.052,0.42,0.162,0.547
		c-0.021,0.291-0.197,0.165-0.437,0.236c-0.422,0.142-0.771,0.471-1.258,0.512c0.143,0.236,0.596,0.654,0.82,0.786
		c-0.091,0.253-0.292,0.453-0.404,0.654c-0.234,0.367-0.42,0.801-0.587,1.201c-0.104,0.368-0.199,0.732-0.308,1.098
		c-0.036,0.151,0.002,0.311-0.056,0.439c0.002,0.329,0.13,0.272,0.329,0.402c0.075,0.052,0.182,0.182,0.274,0.217
		c0.13,0.04,1.13-0.165,1.296-0.217c1.845-0.513,3.506-1.15,5.166-1.807v-0.75c-0.069-0.054-0.129-0.109-0.203-0.18
		c-0.237-0.237-0.582-0.497-0.673-0.877c-0.24-0.931,0.184-1.846,0.367-2.629v-0.527c0.053-0.624,0.108-1.263,0.181-1.902
		c0.111-0.801,0.237-1.605,0.363-2.394c0.4-1.875,0.801-3.739,1.205-5.619c0.093-0.727,0.187-1.444,0.294-2.174
		c0.016-0.274,0.018-0.548,0.035-0.821c0.057-0.269-0.033-0.657,0.037-0.967c0.054-0.256,0.021-0.801-0.037-1.092
		c-0.02-0.274-0.054-0.548-0.054-0.822c-0.217-0.789-0.42-1.484-0.838-2.046c-0.898-1.24-3.017-0.911-5.024-0.896
		c-0.49,0-1.037,0-1.473,0.039c-0.37,0.035-0.828-0.039-1.155,0.035h-0.747c-0.564,0-1.312-0.018-1.84,0.107
		c-0.424,0.002-0.861,0.019-1.298,0.022c-0.331,0.086-0.733-0.018-1.114,0.071c-0.914,0.203-1.972,0.077-2.866,0.274
		c-0.437,0.093-1.385,0.018-1.696,0.203c-0.292-0.021-0.26-0.333-0.37-0.548c-0.233-0.441-0.543-0.842-0.818-1.261
		c-0.367-0.565-0.566-1.115-0.75-1.916c-0.016-0.606-0.02-1.226-0.035-1.844v-0.512c-0.053-0.219-0.327-1.278-0.308-1.369
		c0.069-0.293,0.47-1.202,0.416-1.478c-0.089-0.386-0.436-1.332-0.308-1.844c0.178-0.733,0.584-1.335,0.842-2.046
		c0.085-0.33,0.16-0.658,0.249-0.986c0.039-0.164-0.016-0.33,0.059-0.454v-0.059c0.108,0.131,0.075,0.33,0.143,0.512
		c0.167,0.479,0.335,0.971,0.511,1.462c0.621,1.426,1.445,2.902,2.651,3.761c0.217,0.162,0.472,0.345,0.712,0.44
		c0.274,0.125,0.545,0.163,0.783,0.312c0.565,0.345,1.167,0.71,1.737,1.058c0.144,0.09,0.287,0.105,0.438,0.181
		c0.816,0.349,1.676,0.731,2.554,1.059c0.563,0.199,1.167,0.292,1.733,0.439c0.327,0.087,0.587,0.056,0.859,0.178
		c0.364,0.148,0.658,0.385,0.913,0.643c0.057,0.088,0.124,0.164,0.179,0.236c0.113-0.073,0.897,0.344,1.042,0.417
		c0.676,0.348,1.386,0.568,2.013,0.954c0.343,0.215,0.749,0.455,1.128,0.619c0.637,0.274,1.246,0.545,1.902,0.786
		c0.377,0.129,0.856,0.162,1.162,0.38c0.277-0.053,0.639-1.201,0.513-1.714C126.623,39.628,126.547,39.079,126.348,38.57z
		 M76.219,12.939c0.859,0.877,1.724,1.738,2.938,1.514h2.255c0.527,0,1.223-1.092,1.552-0.217c-0.329,1.098-1.166,1.572-1.725,2.646
		c-0.822,1.52-1.908,2.795-2.082,4.782c0,0.422,0,0.862-0.19,1.283c-0.165,1.295-0.33,2.39-0.165,3.501
		c0.355,0.656-0.165,1.077,0,1.532c-0.503,0.205-0.694,1.499-1.369,1.078l-0.692-0.657c-0.165-0.876-0.165-1.953-0.355-2.829
		c0.521-1.749,0.693-3.909,1.222-5.678c-0.355-1.092,0-2.592-0.701-3.467c0-0.217-0.33-0.42-0.33-0.658
		c0.165-1.092,0-1.953-0.528-2.625L76.219,12.939z M62.183,14.508c0.983-0.379,0.811-1.766,1.449-2.387h0.804
		c0.958,0.783,2.21,1.001,2.866,2.387c0.155,0.607,0.621,0.823,0.977,1.207c0.13,0,0.13,0.235,0.294,0.42l0.172-0.185
		c0.319-0.235,0.154-1.223,0.794-0.834c0.146-0.607,0.311-1.205,0.631-1.388c0.638-0.986,1.596-0.606,2.081-1.606
		c0.301-0.203,0.482,0.417,0.792,0.417l0.63,1.19c0,2.406-0.146,4.415,0,6.809c-0.146,0.804,0,1.606,0,2.409
		c0,1.006,0,2.189-0.146,3.21c-0.484,0.387,0,1.007-0.164,1.593c0,0.598,0.31,1.202,0,1.822c-0.32,0.185-0.477,0.585-0.812,0.185
		c-0.301-0.989-0.958-1.792-0.466-2.798c0.311-1.204,0.957-2.625,0.647-4.231c0-1.591,0.474-3.196,0-4.583
		c-0.182-0.403,0-0.804-0.337-0.804c-0.311,0-0.466,0.186-0.466,0.586c-0.822,0.421-0.822,1.421-1.441,2.026
		c0,0.381-0.467,0.585-0.319,0.987c0,0.401-0.148,0.618-0.148,1c-0.657,0.204-0.958,1.19-1.613,1.407
		c-0.485-0.62-1.106-1.203-1.106-2.005c0-0.585,0.318-1.389,0-1.994c-0.317-0.401-0.467-1.204-1.121-1.607
		c-0.321,0.403-0.623,0.607-0.787,0.989c0.164,0.802-0.32,1.407-0.32,2.211c0,0.196,0,0.196,0,0.401c0,0.802,0,1.386,0.156,2.19
		c-0.156,1.019-0.156,2.025-0.327,3.21c0.491,0.605,0,1.224-0.302,1.605c-0.337,0-0.484,0.421-0.804,0
		c-0.62-0.802-0.337-1.987-0.484-3.211c-0.473-0.802-0.319-2.006-0.638-2.775c0.165-1.42-0.492-2.829-0.155-4.217
		c0-0.804,0.155-1.607-0.337-2.193V14.508z M56.971,44.902c0.153-1.186-0.166-2.172,0.153-3.559
		c-0.153-0.999,0.337-2.17,0.147-3.375c-0.109-0.803,0.319-1.37,0-2.356c0.172-0.985,0.319-2.189,0.319-3.373
		c0.319-0.586,0.786,0,1.104,0.196c0.939,1.572,2.027,3.012,3.149,4.545c0.601,0.823,1.425,1.191,1.725,2.378
		c0.64,0.986,1.425,1.582,2.064,2.57c0.619-0.198,0.466-0.783,0.784-1.368c0-0.619-0.318-1.202,0-1.605
		c0.146-0.987,0.019-1.771,0.146-2.757c0.081-1.171,0.154-2.374,0.474-3.361c0.166-1.002,0.785-0.197,1.252-0.402
		c0.174-0.402,0.319-0.782,0.639-1.002l0.154,0.22c-0.154,1.571-0.474,2.973-0.309,4.545c-0.311,0.601,0.154,1.184-0.165,1.77
		l0.165,0.987v1.79c-0.484,0.401,0.309,1.184-0.311,1.585c0,0.4,0.145,0.801,0,1.204c0.145,0.989-0.321,1.769-0.321,2.559
		c-0.466,0-0.146,1.001-0.637,0.783c-0.302,0.401,0,0.986-0.302,0.986c0.147,0.219,0.302,0.403,0,0.621
		c-0.166,0-0.319-0.621-0.485-0.218l-0.939-0.185c-0.145-1.205-0.638-1.988-1.252-2.777c-0.281-0.618-0.638-0.999-0.957-1.184
		c-0.3-0.989-1.259-1.79-1.725-2.776c-0.784-0.599-1.104-1.77-1.724-2.574c-0.32-0.402-0.64-0.986-0.951-1.184
		c-0.475,0-0.319,1.002-0.475,1.369c-0.317,0.619-0.147,1.39,0,1.79c0,0.401-0.147,0.801-0.317,0.986c0.17,0.599,0,1-0.148,1.585
		c0.148,0,0.148,0.218,0,0.401c0.318,0,0.148,0.403,0.148,0.587l-0.148-0.185c-0.172,0.185,0.148,0.185,0.148,0.403
		c-0.32,0.583-0.148,1.367-0.148,1.768c0,0.4-0.318,0.585,0,0.986c0,0.205-0.318,0.205-0.464,0.205c0-0.205-0.174-0.388-0.174-0.388
		c-0.147,0-0.319,0.183-0.147,0.388c0.147,0.198-0.172,0.599,0,0.783c-0.319,0-0.319,0.804-0.792,0.218
		c-0.165,0-0.319,0-0.319-0.218c0.154-0.783,0.473-1.171,0.473-1.769C57.124,46.091,56.487,45.508,56.971,44.902z M42.658,23.128
		c0.203-0.459,0.386-1.207,0.203-1.679l0.183-1.464v-1.457c0.399-1.479,0.207-2.922,0.581-3.907c0-0.458,0-0.951,0.202-1.208
		l0.575-3.649c0.184-0.73,1.15-0.472,1.15-1.458c0.392-0.223,0.784,0.235,1.178,0.235c0.758,0,1.359,0.256,2.117,0.256
		c0.392,0.236,0.777,0.236,1.176,0.236c1.334,0.73,2.504,2.429,3.862,3.415c0.757,1.222,1.333,2.428,1.727,3.886
		c0.391,0.714,0.208,1.699,0.208,2.685l-0.208,0.472c-0.185,0.493,0.208,1.208-0.185,1.958c0,0.472-0.574,0.729-0.574,1.22
		c-0.393,0.237-0.603,0.951-0.785,1.682c-0.391,0.491-0.776,0.749-0.96,1.477c-0.398,0.236-0.967,0.493-0.967,1.221
		c-1.157,1.209-2.327,1.936-3.869,2.172c-0.183,0-0.575,0.257-0.968,0.257c-0.968,0-1.935-0.493-3.086-0.493
		c-0.594,0-1.357,0-1.752-0.985c0.191-1.442,0.191-2.663,0.395-3.886L42.658,23.128z M55.035,46.236
		c-0.017,0.185-0.209,0.568-0.073,0.986c0.137,0.2-0.025,0.367-0.208,0.568c-0.785-0.041-0.985,0.712-1.479,1.077
		c-0.503,0.18-0.949-0.256-1.232-0.677c0.209-0.565,0.265-1.369,0.449-1.952c0.4-1.152,0.518-2.744-0.213-3.58
		c0.175-0.383,0.337-0.183,0.649-0.163c0.647-0.333,0.246-1.354,0.438-1.955c-0.154-0.015,0.199-0.365,0.045-0.585
		c0.01-0.183-0.128-0.416,0.036-0.586c-0.238-0.82-0.173-1.806-0.1-2.806l0.009-0.184c0.01-0.182-0.155-0.199,0.01-0.182l0.09-3.594
		c0.001-0.369,0.222-0.751,0.53-0.932c0.475,0.233,1.276,0.091,1.542,0.491c0.264,0.823,0.222,1.408,0.036,1.99
		c-0.256,1.186-0.211,2.188-0.227,3.174c-0.064,2.574-0.037,5.149-0.22,7.705C54.925,45.417,55.208,45.85,55.035,46.236z
		 M46.893,46.986c0,0.383-0.165,0.783-0.491,1.002l-1.079-0.219c-0.49-0.182-0.646-0.988-1.104-0.988
		c0-0.195-0.172-0.398-0.319-0.398c-0.154-0.601-0.319-1.187-0.154-1.587c0-0.184-0.165-0.401-0.492-0.586l-0.146-0.801
		c0.146-0.589,0.146-0.987,0.319-1.572c-0.319-1.184,0-2.389,0-3.758c0.318-0.987,0.446-2.178,0.318-3.179l-0.318-2.171
		c0.153-0.4,0.318-0.788,0.62-0.788c0.483-0.402,0.631,0.586,0.786,0.788c0.164,1.001,0.784,1.77,0.637,2.756
		c0,1.206,0.147,2.39,0.147,3.777c0.319,0.185,0.639,0.804,0.957,0.586c1.252-0.987,0.932-3.158,1.407-4.731
		c-0.155-1,0.784-1.79,0.957-2.789c0.785-0.585,1.717-0.79,2.675-0.585c0,4.816-1.423,7.334-1.578,8.105
		c-0.165,0.403-0.312,0.999-0.777,0.804c-0.172,0.4-0.492,0.598-0.492,0.986c-0.619,0.4-1.26,0.999-1.26,1.77
		c0,0.4-0.457,0.4-0.457,0.801C47.359,45.013,47.048,45.999,46.893,46.986z M34.373,20.094c0.354-1.349,0.171-2.92,0.354-4.507
		c0.356-0.673-0.184-1.586,0-2.466c0-0.911,0-2.041,0.356-2.921c0.528-0.457,0.884-0.251,1.57,0H40c0.351,0,1.042,0,1.233,0.662
		c0.33,0.218,0,0.456-0.191,0.673c-0.691,0.456-1.396,0-2.28,0h-1.398c-0.52,0-0.71,0.675-0.875,1.13
		c-0.357,0.456,0,0.913-0.357,1.335c0.166,1.129,0,2.042,0.357,2.955c0.875,0.661,1.753-0.238,2.628,0.218
		c0.175-0.218,0.529,0,0.694,0.204C40,17.616,40.166,18.072,40,18.506c-0.709,0.457-1.402,0-2.108,0
		c-0.528,0-1.238-0.216-1.595,0.238c-0.523,0.675-0.166,1.806-0.523,2.466c0.192,0.457-0.353,0.913,0,1.368
		c-0.163,0.437,0.192,1.131-0.353,1.568c0,0.897,0.19,1.809,0.19,2.702l0.355,0.238c0.687,0.218,1.562,0,2.274,0
		c0.693,0,1.404,0,1.569,0.676c0,0.456-0.52,0.659-0.876,0.659c-0.173,0-0.337,0.22-0.529,0.458
		c-0.514-0.238-1.042-0.238-1.397,0.218c-0.164-0.456-0.711,0-0.877-0.456c-0.52,0.456-1.239,0.238-1.759,0
		c-1.042-0.661-0.413-2.009-0.351-3.14C33.833,23.709,34.543,21.886,34.373,20.094z M33.366,32.855
		c0.32-1.185,1.253-1.001,2.037-1.185c1.424,0,2.683,0.403,3.788,1.001c0.939,0.986,2.19,2.558,2.043,4.349
		c-0.318,0.599-0.792,1.185-1.259,1.585c-0.164,0.584-0.784,0.801-1.103,1.169c-0.639,0.218-1.104,0.804-1.726,1.389
		c0.155,0.816,0.939,1.205,1.259,1.803c1.104,0.771,1.891,1.77,2.683,2.961c0.467,0.986,1.406,1.387,1.726,2.385
		c0,0.186,0.147,0.586-0.155,0.586c-0.638-0.215-1.424-0.801-1.896-1.204c-0.165-0.781-0.951-0.781-0.951-1.572v-0.195h-0.303
		c-0.483-0.403-0.956-0.988-1.423-1.389c-0.317-0.802-0.939-0.986-1.424-1.573c-0.301-0.804-0.94-0.598-1.086-1.204
		c-0.32-0.198-0.64-0.599-1.104-0.38l-0.172,0.182c-0.148,0.416,0,0.599-0.302,1.002c0.302,0.4-0.484,0.4-0.165,0.987
		c-0.146,0.184,0.165,0.801-0.146,1.184c0,0.203-0.173,0.605-0.173,0.789c0.173,0.598-0.475,1.001-0.147,1.584
		c0.147,0.205,0.147,0.403,0.147,0.586c-0.301,0.217-0.301,0.403-0.475,0.618l0.174,0.186c-0.484,0.185-0.958,0-1.424,0
		c0.146-1.584,0.466-3.157,0.637-4.761c-0.171-0.585,0.303-0.989,0.146-1.575c0.321-0.599-0.146-1.184,0.156-1.584l-0.156-0.401
		l0.156-1.388c0.108-0.987,0-1.77,0.311-2.758L33.366,32.855z M7.837,9.145c0.43-0.804,1.149-1.006,1.718-1.408
		c0.575,0,0.858,0.604,1.432,0.805c1.435,0.201,3.012,0.819,4.591,0.403c1.854-0.202,3.861-0.403,5.725-0.806
		c0.575,0.202,1.294-0.603,1.723,0.202c0,0.201-0.144,0.402-0.144,0.603c-0.713,0.416-1.435,0.618-2.009,0
		c-2.865,0.416-5.294,1.624-8.167,1.624c-0.858,0-1.862-0.604-2.721-0.201L9.845,10.77c0,1.021,0.139,2.027,0.139,2.845
		c0.147,0.806,0.147,1.825,0.147,2.629c0.283,1.22,0.144,2.832,0.283,4.054c0.144,0.401,0.289,0.2,0.573,0.2
		c0.722-0.603,1.579-0.603,2.291-0.2c2.867-0.604,5.878-0.604,8.6-1.021c0.573,0,1.147-0.201,1.715,0
		c0.146,0.214,0.576,0.618,0.146,0.819c-1.288,0-2.293-0.202-3.434,0.202c-0.719,0-1.44,0-2.008,0.401h-0.866
		c-1.854,0-3.717,1.02-5.723,1.02c-0.429-0.201-1.15-0.201-1.295,0.403v4.657c-0.283,0.816,0.289,2.242-0.568,2.441
		c-0.428,0.188-0.858,0.402-1.149,0.805c-0.429,0.203-0.712-0.2-0.858-0.617c0.284-1.41,0-3.434,0.146-4.858
		c0-1.006,0.138-2.025,0-2.831c0.138-2.228,0-4.255,0-6.494v-0.202l-0.146-4.051C7.693,10.368,7.693,9.764,7.837,9.145z
		 M7.016,45.999c0.786,0,1.424,0.199,2.045,0.199c0.631,0,1.269-0.199,1.735-0.599c0.64-0.585,1.259-1.789,0.939-2.96
		c0-0.599-0.467-0.999-0.62-1.387l-0.632-0.198c-0.319,0-0.639-0.619-1.111-0.4c-0.312-0.4-0.613-0.586-0.933-0.586
		c-0.638-0.217-0.638-0.988-0.958-1.389c-0.147-0.216-0.147-0.599-0.293-0.599l-0.173-0.402c0-0.986,0.319-1.776,0.319-2.777
		c0.64-0.986,0.934-2.171,2.037-2.571c0.639-0.388,1.896-0.987,2.535,0c0,1.401-1.577,0.802-2.216,1.789
		c-0.146,0.197-0.785,0.197-0.785,1c-0.467,0.586-0.638,1.573-0.312,2.355c0.165,0.605,0.467,0.988,0.778,1.389
		c0.473,0.216,0.958,0.4,1.578,0.4l1.104,0.804c0.467,0.586,0.639,1.367,0.94,1.973c0,0.781,0.319,1.77-0.153,2.355
		c0,0.401-0.319,0.618-0.467,0.801c0.319,0.803-0.319,1.001-0.467,1.584c-0.319,0.205-0.639,0.403-1.111,0.403
		c-0.313,0.403-0.785,1.171-1.424,0.804c-0.312,0.185-0.778-0.219-1.251-0.219c-0.319-0.783-1.259-0.4-1.578-1.184
		C6.697,46.383,6.697,45.782,7.016,45.999z M15.222,53.428L14.4,53.832c-0.657-0.403-1.331-0.844-1.986-1.039
		c-0.99,0.195-1.5,0.822-2.322,1.039c-0.49,0.639-0.657,1.678-1.158,2.282c0,0.436-0.327,0.618-0.327,1.04
		c-0.337,0.42,0,1.04-0.337,1.645c0.337,0.434,0,1.072,0.171,1.676c0.166,1.042,0.493,2.082,1.161,2.903
		c0.153-0.183,0.153,0.202,0.153,0.454c0.503,0.185,0.674,0.421,1.159,0.585c0.675,0.236,1.652,0,2.327-0.4
		c0.502,0.203,0.968-0.639,1.479,0v0.841c0,0.619-0.657,1.04-0.977,1.659c-0.502,0.203-1.013,0.203-1.329,0.604
		c-0.341-0.182-0.678,0.217-0.99,0.217c-0.337,0-0.655-0.398-0.995-0.217c-0.171-0.182-0.337,0-0.49-0.182
		c-0.337-0.422-0.841-0.422-1.005-1.041c-0.664-0.638-1.149-1.245-1.488-2.066c0-0.857-0.317-1.494-0.49-2.099
		c-0.332-0.616-0.012-1.473-0.165-2.079l-0.167-0.619c0-0.421-0.171-0.624,0-1.057c0.332,0,0.505-0.404,0.657-0.824
		c0-0.421,0-0.822-0.325-1.04l0.656-1.642c0.658-0.639,0.658-1.679,1.322-2.1c0.164-0.622,0.821-0.421,1.158-1.039
		c0.505-0.206,0.995-0.206,1.497-0.421c0.825,0.216,1.48,0.421,2.301,0.421c0.511,0.417,1.652,0.417,1.507,1.46
		C15.396,52.987,15.222,53.192,15.222,53.428z M15.878,48.314c-0.173-0.123-0.092-0.326-0.173-0.598c0-0.327,0-0.768-0.183-0.986
		c-0.099-0.475,0.43-0.112,0.43-0.565c0.117-0.114,0.117-0.206,0.117-0.327c-0.364-0.147-0.191-0.443-0.364-0.806
		c0.364-0.472-0.631-0.472-0.108-1.003c0.189-0.33-0.074-0.693,0-1.02c0-0.423-0.173-0.915,0.108-1.245
		c-0.183-0.091,0.173-0.33-0.108-0.454c-0.173-0.532,0.355-0.875-0.074-1.336v-1.019c0.356-0.203-0.099-0.565,0.183-0.749
		c-0.183-0.496-0.183-0.825,0-1.258c0-0.679-0.446-1.132-0.519-1.718c-0.301-0.329-0.657-0.07-0.904-0.421
		c-0.274,0.091-0.557-0.236-0.729-0.473c-0.165-0.66-0.066-1.351,0-1.902c0-0.125,0-0.125,0-0.238c0.081,0,0.081,0,0.173,0.113
		c0.191,0-0.092-0.33,0.191-0.204c0.164-0.125,0.365,0.091,0.439-0.125c0.246,0.217,0.173-0.327,0.455-0.217
		c0.184,0,0.375,0.217,0.448,0c0.527,0.125,0.975,0.217,1.424-0.223c0.173,0.223,0.382,0.44,0.547,0.44h0.257
		c-0.11-0.092-0.165-0.092-0.165-0.217c0.257-0.223,0.429,0.125,0.62,0.125l0.165,0.309c0.099,0,0.099-0.217,0.19-0.091
		c0,0.091,0.185,0.091,0.339,0.091c-0.062-0.091,0.128-0.309,0.201-0.217c0.246,0,0.337,0.217,0.528,0.33
		c0.19-0.204-0.073-0.421,0-0.657c0.19,0,0.448,0,0.54,0.327c0.172,0.33,0.072,0.566,0.072,0.915c0.283,0.328-0.164,0.782,0.21,1.02
		c0,0.422,0,0.769-0.374,0.986c-0.357,0-0.73,0.329-0.977,0c-0.073,0-0.264-0.091-0.446-0.091c0-0.126,0-0.236-0.094-0.236
		c0.094,0.328-0.455,0-0.264,0.42l-0.283-0.31c0,0.126-0.091,0.217,0,0.31c0.283,0,0.191,0.475,0.191,0.567
		c-0.191,0.361-0.282,0.709-0.282,1.038c0.183,0.217,0.282,0.455,0.183,0.546c0,0.369,0,0.566,0.1,0.916
		c0.092,0.146-0.1,0.146-0.191,0.237c0.357,0.092,0,0.329,0,0.566c-0.091,0.328,0.191,0.657-0.091,0.896
		c-0.081,0-0.283-0.094-0.283,0.091c0.11,0.124,0.11,0.217,0.11,0.217l0.092-0.093c0.363,0.35,0.081,0.657,0.264,1.027
		c0.1,0.433-0.264,0.763-0.092,1.204c0.283,0.381,0.191,0.804,0.283,1.131c-0.455,0.125,0.073,0.565-0.283,0.693
		c0-0.128-0.172-0.128-0.264-0.128c0.092,0.128-0.165,0.33,0.092,0.455c0.081,0,0.081-0.125,0.172-0.125
		c0,0.239,0,0.454,0.191,0.599h0.165c0.099,0,0,0.094,0.099,0.203c-0.264,0-0.455,0.127-0.546,0.363
		c-0.173,0-0.173,0.205-0.081,0.296c0.081,0,0.172,0.147,0.172,0.268c-0.091,0.091-0.264,0.091-0.172,0.296
		c0.172,0,0.363-0.091,0.455,0.145c-0.191,0-0.191,0.218-0.374,0.218c-0.081,0.205-0.283,0.475-0.338,0.677
		c0-0.129-0.092-0.203-0.184-0.129c-0.073,0.365,0.238,0,0.238,0.365c0.202-0.142,0.11-0.365,0.202-0.438
		c0.264,0.073,0,0.552,0,0.75c0.081,0.145,0.264,0.204,0.264,0.471c0.1,0.206,0,0.444-0.183,0.444c0,0.124,0.091,0.216,0.091,0.216
		h0.092c0,0.093-0.264,0.093-0.355,0.203c0,0.454-0.165,0.803-0.422,0.948c-0.209,0-0.209-0.235-0.209-0.33
		c0-0.165,0-0.362,0.209-0.362l0.165,0.105c-0.092-0.235,0.092-0.471,0.257-0.471c0.092-0.093,0.092-0.093,0.173-0.186
		c-0.081-0.362-0.081-0.691-0.283-0.894c-0.146,0-0.238,0.421-0.311,0.203c-0.29,0-0.567,0.33-0.831,0.123
		C16.162,48.409,15.953,48.409,15.878,48.314z M24.651,66.771c0,0.184,0.147,0.987-0.172,0.987c-0.148,0-0.467,0-0.467,0.185
		c-0.32-0.404-0.939,0-1.251-0.404c0-0.584,0.147-0.985,0-1.571c-0.173-0.4,0.126-0.583,0.147-0.986l0.165-3.758
		c0.153-0.4,0-0.789-0.165-1.189c-0.319-0.197-2.511,0-2.511,0h-0.172c-0.467,0-1.086,0-1.253,0.586
		c-0.152,1.789,0.167,3.374-0.152,4.764c-0.147,0.583-0.32,1.169-0.64,1.786c-0.147,0.186,0.319,0.186,0.173,0.587
		c-0.173,0.4-0.639-0.219-0.786,0.4c-0.319-0.215-0.792-0.619-1.103-0.215c-0.32-0.185-0.173-0.988-0.173-1.389
		c0.173-0.38,0-0.769-0.147-0.987c0.147-0.585-0.153-0.989,0.147-1.572c0.173-0.598-0.147-1,0-1.77
		c0.173-0.803-0.62-1.401,0.173-1.79c0-0.598,0.145-1.184,0.145-1.79c-0.145-0.38,0.166-0.781-0.145-1.184
		c0.145-0.804,0.311-1.988,0.311-2.973c-0.166-0.987,0.301-2.158,0.154-3.157c0.466-0.206,0.94-0.589,1.251,0
		c0.473,0.803,0.319,1.77,0.64,2.756l0.152,3.559c0.467,0.401,1.105,0,1.744,0.218c0.292-0.218,1.086,0.583,2.357-0.403
		c0.153-0.183,0.302-0.804,0.302-1.168c-0.467-1.002,0.172-1.991-0.148-2.977c0.32-0.986,0.639-1.803,0.932-2.591
		c0.321-0.598,0.958,0,0.958,0.606v4.743l0.154,2.191c0.166,0.768-0.154,1.77,0,2.356c-0.154,0.603,0.166,0.801,0.166,1.387
		c-0.485,0.801-0.166,1.987-0.485,2.776C24.951,65.385,25.116,66.174,24.651,66.771z M29.842,53.646c0.148,0.403-0.17,0.788,0,1.204
		c0,2.574-0.209,5.132-0.318,7.705c-0.062,0.986-0.172,1.973,0,3.177c0.148,0.585,0.148,1.184-0.172,1.971
		c-0.302,0.385-1.086,0.199-1.571,0.385c-0.301-0.186-0.492-0.586-0.466-0.969l0.165-3.578c-0.165,0,0,0,0-0.185v-0.199
		c0-0.986,0-1.972,0.301-2.775c-0.153-0.183,0-0.4,0-0.585c0.166-0.218-0.153-0.584,0-0.584c-0.153-0.618,0.319-1.607-0.301-1.989
		c-0.319,0-0.483,0.2-0.639-0.216c0.786-0.771,0.786-2.374,0.474-3.545c-0.154-0.601-0.154-1.404-0.318-1.987
		c0.318-0.403,0.784-0.804,1.27-0.586c0.473,0.401,0.62,1.169,1.406,1.169c0.17,0.22,0.318,0.402,0.17,0.585
		C29.672,53.063,29.842,53.463,29.842,53.646z M30.538,48.21c-0.146,0.381-0.3,0.381-0.619,0.381
		c-0.596-0.163-1.087-0.946-1.087-1.717c-0.448-0.585-0.302-1.551-0.769-1.952c0.147-0.784-0.299-1.349-0.299-1.935
		c-0.319-0.403-0.621-0.185-0.934-0.403c-0.921,0.218-1.54-0.183-2.308-0.381c-0.32,0.198-0.768,0-0.932,0.599
		c0,0.37-0.308,0.771-0.136,1.148c-0.622,0.188-0.492,0.971-0.786,1.372c0,0.565-0.302,1.336-0.455,2.117
		c-0.467,0.383-0.767,1.369-1.379,0.989c-0.621-0.219-0.792-0.989-0.621-1.555c0.129-0.215,0.129-0.783,0.301-1.184
		c0.32-0.565,0.32-1.552,0.613-2.117c0-0.401,0-0.585,0.153-0.771v-0.784l0.466-0.401l1.844-4.854
		c0.147-0.384,0.312-0.771,0.483-1.153c0.128-1.151,0.603-2.15,1.067-3.104c0.447-0.565,0.94-1.164,1.688-0.967
		c0.467,0.402,0.614,1.355,0.934,1.921c0,0.599,0.299,0.783,0.299,1.185c0.641,1.735,1.087,3.486,1.087,5.421
		c0.173,0.987,0.302,1.953,0.467,2.736c-0.165,0.936,0.455,1.552,0.455,2.52c0.166,0.186,0,0.368,0.166,0.565l0.3,0.986V48.21z
		 M31.215,28.949l-3.68-0.2c-0.768,0.219-1.178,0.422-1.725-0.091c-0.339-0.984-0.274-2.191-0.222-3.176
		c-0.153-0.967,0.494-1.917,0.139-2.649c-0.11-1.716,0.183-3.414-0.128-4.889c0.292-1.92-0.392-3.927-0.073-5.859
		c-0.01-1.208-0.62-2.701,0.566-3.359c0.593-0.236,1.379-0.418,1.935,0.107c0.21-0.491,0.777,0.038,0.986-0.439
		c0.364,0.512,0.938,0.534,1.531,0.312c0.193,0.271,0.366,0.509,0.549,0.514C31.486,9.25,32.045,9.507,32.025,10
		c-0.227,0.712-1.004,0.676-1.769,0.624c-0.777-0.039-1.728-0.313-2.502-0.13l-0.402,0.239c-0.054,0.95-0.31,1.932-0.365,2.904
		c0.567,0.507,0.139,1.224,0.301,1.697c-0.417,0.474,0.155,1.001-0.08,1.477c0.354,0.749-0.102,1.936,0.438,2.699
		c0.355,0.512,1.15,0.313,1.726,0.35c0.784,0.037,1.567-0.418,2.318,0.127c0.163,0.474-0.047,0.951-0.267,1.204
		c-0.2,0.22-0.601,0.423-0.774,0.184c-0.987,0.438-1.898-0.601-2.904,0.075c-0.446,0.965-0.318,1.953-0.563,3.158
		c0.364,0.49-0.047,0.965,0.317,1.475c0.155,0.495,0.329,1.241,0.895,1.262c0.391,0.02,0.968,0.054,1.543,0.089
		c0.967,0.041,1.771-0.402,2.5,0.128c0.2,0.24,0.556,0.529,0.175,0.732C32.364,29.004,31.605,28.966,31.215,28.949z M35.813,67.247
		c-0.364-0.476-0.566,0.233-0.923,0c-0.583,0.233-0.938,0-1.496,0.233c-0.383-0.472-0.756,0-1.322-0.233
		c-0.184-0.731-0.558-1.444-0.558-2.371c0.374-0.224,0.374-0.695,0.165-1.149c0.393-3.765,0.792-7.541,0.959-11.738
		c0.018-0.495,0-1.169,0.373-1.428c0.383,0.259,0.738,0,0.94,0.494c0.19,2.099,0.19,4.196,0,6.335
		c0.19,0.216-0.202,0.71-0.202,0.913c0.393,1.658-0.174,3.065-0.174,4.962v0.697c0,0.218-0.182,0.913,0.174,1.151
		c0.393,0,2.812-0.933,3.014,0.948C36.763,66.771,36.197,67.009,35.813,67.247z M46.648,65.57c-0.21,0.144-0.413,0.073-0.549,0.289
		c-0.108,0.165-0.064,0.438-0.236,0.529v-0.035c-0.084-0.089-0.155-0.18-0.21-0.275c-0.057,0.019-0.036,0-0.073,0.022
		c-0.11,0.071-0.11,0.268-0.201,0.361c-0.392-0.382-0.519-0.093-0.931-0.181c-0.075-0.019-0.201-0.112-0.274-0.145
		c-0.108-0.038-0.327-0.053-0.382-0.132v-0.527c0.108-0.125,0.165-0.291,0.309-0.363c0.091-0.004,0.166-0.022,0.248-0.038
		c0.099-0.053,0.126-0.185,0.237-0.241c0.138,0.108,0.328,0.2,0.548,0.205c0.127-0.097,0.309-0.255,0.446-0.314
		c0.165-0.071,0.29-0.016,0.384-0.141c0.181,0.05,0.566,0.035,0.894,0.035c0.045,0.129,0.036,0.38,0.036,0.566
		C46.802,65.311,46.785,65.492,46.648,65.57z M48.956,64.835c-0.218,0.17-0.42,0.388-0.721,0.494
		c-0.109-0.183-0.327-0.289-0.411-0.472c0.056-0.038,0.037-0.017,0.065-0.093c-0.073,0.021-0.137,0.038-0.203,0
		c-0.135-0.203-0.042-0.841-0.034-1.134c0.145,0.074,0.266,0.277,0.41,0.314c0.084,0.018,0.273-0.076,0.41-0.038
		c0.237,0.07,0.366,0.238,0.519,0.385C48.994,64.492,48.976,64.672,48.956,64.835z M52.325,60.619
		c0.02,0.093,0.108,0.182,0.136,0.276c-0.073,0.056-0.209,0.197-0.244,0.292c-0.058,0.2,0.09,0.456-0.065,0.565
		c-0.055-0.125-0.109-0.203-0.237-0.253c-0.063,0.144-0.08,0.053-0.137,0.109c-0.055,0.056-0.055,0.073-0.073,0.18
		c0.146,0.059,0.118,0.256,0.102,0.459c-0.483,0.527-0.421,1.001-1.479,0.987c0.036,0.344-0.093,1.036-0.477,1.036
		c-0.017,0.132-0.061,0.219-0.107,0.315l-0.029-0.037c-0.256-0.166-0.819-0.803-0.82-1.061c0.174-0.163-0.073-0.289,0.034-0.604
		c0.103-0.36,0.439-0.347,0.44-0.816h0.346c0.072-0.294,0.52-0.642,0.851-0.677c-0.001-0.385,0.108-0.565,0.182-0.806
		c0.01-0.162,0.019-0.31,0.027-0.456c0.074-0.289,0.145-0.655,0.208-0.929c-0.362-0.312-0.089-1.226-0.821-1.242
		c0.011-0.217,0.02-0.44,0.03-0.674c-0.31-0.203-0.43-0.624-0.721-0.842c-0.376-0.292-0.74-0.439-0.997-0.857
		c-0.091,0.056-0.245,0.185-0.309,0.145c-0.066-0.095-0.066-0.29-0.137-0.386c-0.175-0.18-0.449-0.251-0.658-0.397
		c-0.047-0.036-0.119-0.183-0.166-0.203h-0.345v-0.18c-1.076-0.603-2.181-0.987-3.477-1.387c-0.157-0.04-0.459-0.038-0.649-0.109
		c-0.218-0.059-0.346-0.261-0.592-0.205c-0.312,0.076-0.467-0.125-0.721-0.107c-0.193,0.016-0.366,0.181-0.649,0.107
		c-0.117-0.033-0.474-0.218-0.52-0.177c-0.191,0.073-0.365,0.324-0.583,0.382c-0.174,0.069-0.356-0.056-0.478-0.035
		c-0.419,0.071-0.857,0.416-0.929,0.818c0.173,0.239-0.082,0.456,0,0.748c0.063,0.256,0.31,0.438,0.382,0.71
		c0.103,0.441-0.108,0.748-0.109,1.242H38.15v0.058c0.164,0.124,0.255,0.327,0.311,0.545v0.165c0.127,0.271,0.52,0.382,0.583,0.712
		H38.77v0.036c0.157,0.256,0.311,1.369,0.383,1.734h-0.071c-0.038-0.056-0.137-0.201-0.166-0.145c-0.181,0.272-0.117,0.875,0,1.131
		c0.02,0.056,0.119,0.162,0.128,0.218c0.028,0.091-0.116,0.256-0.063,0.385c0.045,0.124,0.192,0.235,0.239,0.398
		c0.089,0.347-0.147,0.571,0.106,0.771c-0.062,0.142-0.118,0.145-0.137,0.324c0.337,0.224,0.503,0.953,0.478,1.446
		c0.273,0.16,0.437,0.365,0.517,0.712c0.046,0.197-0.091,0.289-0.099,0.397c-0.026,0.13,0.282,0.768,0.374,0.807
		c0.273,0.217,0.747-0.02,1.133,0.109c0.074,0.021,0.153,0.147,0.208,0.18c0.231,0.095,0.659-0.128,0.795,0.073
		c-0.456,0.31-0.792,0.768-1.031,1.298c-0.446-0.166-0.511,0.18-0.858,0.254c-0.035-0.163-0.053-0.203-0.246-0.215
		c-0.045-0.057-0.019-0.039-0.107-0.074c-0.094,0.291-0.441,0.268-0.579,0.542h-0.035v-0.253c-0.455,0.002-0.474-0.199-0.693-0.42
		c0-0.308,0.084-0.398,0.146-0.602c-0.107-0.07-0.2-0.128-0.244-0.254h0.31c0-0.273-0.082-0.365-0.102-0.603
		c-0.255-0.016-0.51-0.021-0.758-0.036c0.002-0.331-0.071-0.568-0.071-0.844c0.008-0.16,0.102-0.344,0.071-0.396
		c-0.062-0.165-0.217-0.205-0.273-0.35c-0.145-0.345,0.101-0.586,0.166-0.819c-0.146-0.041-0.303-0.094-0.304-0.314
		c-0.536,0.003-0.611-0.31-0.583-0.889c0.082-0.114,0.119-0.348,0.137-0.53c-0.174-0.056-0.518-0.274-0.557-0.459
		c0.065-0.071,0.145-0.144,0.202-0.218c-0.12-0.129-0.366-1.148-0.303-1.407c0.01-0.051,0.101-0.183,0.101-0.218
		c0.027-0.147-0.145-0.401-0.062-0.639c0.025-0.074,0.081-0.127,0.101-0.241c-0.258-0.183-0.347-0.964-0.275-1.458
		c0.009-0.056,0.062-0.165,0.028-0.289c-0.229-0.899-0.566-2.338-0.44-3.25c0.046-0.345-0.137-0.601,0-0.916
		c0.12-0.291,0.513-0.676,0.649-1.001c0.056-0.129,0.008-0.238,0.065-0.347c0.137-0.221,0.326-0.148,0.456-0.459
		c0.065-0.014,0.137-0.033,0.202-0.035v-0.507c0.153,0.033,0.234,0.109,0.346,0.179c-0.01-0.235-0.028-0.549,0.035-0.747
		c0.028,0.053,0.01,0.018,0.036,0.074c0.083,0.088,0.139,0.198,0.166,0.324h0.036c0.008-0.126-0.01-0.126,0.071-0.18
		c0.175,0.312,0.486,0.768,0.859,0.892c0.392,0.115,0.595-0.253,0.792-0.182c0.028,0.038,0.02,0.038,0.038,0.109
		c0.218,0.02,0.302,0.129,0.438,0.182c0.119,0.039,0.957-0.109,0.967-0.109c0.148-0.124,0.292-0.363,0.383-0.542h0.064
		c0.02,0.272,0.11,0.675,0.41,0.675c0.191,0.126,0.493-0.021,0.723,0.07c0.072,0.035,0.202,0.183,0.274,0.218
		c0.152,0.056,0.473-0.053,0.693,0.038c0.2,0.074,0.347,0.274,0.518,0.347h0.751v0.145c0.255,0.021,0.383,0.147,0.557,0.203
		c0.219,0.092,0.575-0.038,0.894,0.051c0.137,0.203,0.238,0.261,0.238,0.627c0.091-0.005,0.183-0.021,0.281-0.024
		c0.121,0.003,0.247,0.15,0.44,0.095c0.201-0.054,0.4-0.186,0.619-0.241c0.056,0.386,0.484,0.477,0.655,0.75
		c0.103,0.147,0.039,0.438,0.14,0.601c0.135-0.124,0.476-0.198,0.684-0.109c0.22,0.076,0.236,0.273,0.376,0.421
		c0.09,0.091,0.237,0.111,0.347,0.182c0.291,0.184,0.592,0.404,0.894,0.602c-0.073,0.094-0.073,0.259-0.064,0.459
		c0.028,0.002,0.777,0.585,0.785,0.601v0.42c-0.036,0.054-0.054,0.147-0.071,0.219c0.245,0.076,0.464,0.111,0.83,0.109v0.038h-0.036
		c-0.103,0.109-0.274,0.163-0.374,0.274c0.189,0.202,0.056,0.565,0,0.783c0.709,0.406,0.501,1.445-0.109,1.808
		C52.516,60.221,52.251,60.327,52.325,60.619z M63.774,68.072c-0.638-0.214-1.423-0.801-1.896-1.203
		c-0.166-0.781-0.952-0.781-0.952-1.572v-0.195h-0.301c-0.484-0.403-0.957-0.989-1.424-1.389c-0.318-0.801-0.939-0.986-1.424-1.572
		c-0.301-0.804-0.938-0.598-1.086-1.205c-0.319-0.197-0.639-0.598-1.104-0.379l-0.172,0.182c-0.147,0.416,0,0.598-0.303,1.001
		c0.303,0.4-0.483,0.4-0.164,0.986c-0.147,0.186,0.164,0.801-0.147,1.184c0,0.203-0.172,0.606-0.172,0.789
		c0.172,0.598-0.474,1.001-0.147,1.585c0.147,0.205,0.147,0.402,0.147,0.585c-0.301,0.217-0.301,0.402-0.474,0.617l0.173,0.185
		c-0.483,0.187-0.958,0-1.423,0c0.146-1.583,0.465-3.155,0.636-4.76c-0.171-0.586,0.304-0.99,0.147-1.575
		c0.32-0.598-0.147-1.184,0.156-1.584l-0.156-0.4l0.156-1.388c0.108-0.988,0-1.771,0.311-2.759l0.326-3.177
		c0.319-1.185,1.253-1.001,2.038-1.185c1.423,0,2.682,0.403,3.787,1.002c0.939,0.985,2.19,2.557,2.044,4.348
		c-0.319,0.599-0.792,1.186-1.259,1.586c-0.166,0.584-0.785,0.802-1.104,1.17c-0.639,0.218-1.105,0.803-1.726,1.389
		c0.155,0.816,0.939,1.205,1.259,1.802c1.104,0.771,1.891,1.77,2.683,2.961c0.466,0.986,1.405,1.387,1.726,2.384
		C63.929,67.672,64.076,68.072,63.774,68.072z M70.725,52.021c-0.62,0.401-1.259,0-2.044,0h-1.252c-0.474,0-0.639,0.585-0.793,0.989
		c-0.312,0.399,0,0.801-0.312,1.184c0.147,0.987,0,1.791,0.312,2.579c0.793,0.599,1.579-0.205,2.365,0.198
		c0.154-0.198,0.465,0,0.62,0.183c0.164,0.218,0.317,0.619,0.164,0.986c-0.63,0.403-1.258,0-1.89,0
		c-0.467,0-1.105-0.183-1.424,0.218c-0.467,0.585-0.147,1.572-0.467,2.17c0.165,0.403-0.319,0.803,0,1.204
		c-0.152,0.371,0.165,0.986-0.319,1.356c0,0.802,0.167,1.605,0.167,2.388l0.317,0.218c0.62,0.183,1.406,0,2.045,0
		c0.621,0,1.251,0,1.406,0.586c0,0.4-0.466,0.581-0.785,0.581c-0.155,0-0.309,0.185-0.475,0.404
		c-0.466-0.219-0.933-0.219-1.252,0.183c-0.154-0.401-0.638,0-0.785-0.401c-0.472,0.401-1.11,0.219-1.578,0
		c-0.938-0.585-0.374-1.753-0.319-2.757c-0.164-1.572,0.468-3.174,0.319-4.762c0.318-1.171,0.148-2.558,0.318-3.962
		c0.321-0.586-0.17-1.373,0-2.158c0-0.802,0-1.788,0.321-2.572c0.467-0.4,0.784-0.202,1.404,0h2.995c0.319,0,0.939,0,1.111,0.586
		C71.193,51.621,70.897,51.823,70.725,52.021z M70.159,41.71c0-0.401-0.146-0.802,0-1.388c0-1.204,0.64-1.973,0.492-3.375
		c0.294-0.388,0.459-0.986,0.785-1.388c1.086-1.757,2.511-3.178,4.081-3.56c0.939-0.205,1.879-0.348,2.828,0
		c0.621,0.238,1.427,0.196,1.891,0.802c0.647,0,0.94,0.601,1.261,1.185c-0.148,0.401-0.467,0.784-0.934,0.586
		c-0.619-0.219-0.779-0.988-1.418-0.988c-0.94,0-1.733-0.599-2.51-0.4c-0.939,0.4-1.58,0.803-2.364,1.389
		c-0.155,0.4-0.319,0.4-0.465,0.586c-0.642,0.802-1.095,1.419-1.58,2.386c-0.299,0.606-0.319,1.388-0.319,2.377v2.374
		c0,1.402,0.466,2.573,1.105,3.754c0.152,0.609,0.794,0.806,1.259,1.39c1.104,0,1.715,0.804,2.964,0.205
		c0.175-0.205,0.468,0,0.643-0.205c0.317-0.4,0.293-0.4,0.777-0.781c0.613-0.989,1.904-1.79,2.051-3.18
		c-0.146-0.586,0.961-1.387,0.178-1.769c-0.174-0.204-0.647,0-0.795-0.204c-0.784,0.204-1.422,0.186-2.208-0.198
		c-0.466-0.236-0.939-0.203-1.424-0.4c-0.299-0.185,0.165-0.586,0.165-0.791c1.404-0.999,2.983,0.205,4.408-0.38
		c0.318,0.185,0.934,0.38,1.095,0.986c-0.308,0.987,0.329,1.973-0.161,3.159c0,0.401-0.147,0.801-0.297,1.184
		c-0.318,0.401-0.318,0.984-0.783,1.388c0,0.402-0.32,0.402-0.491,0.585c-0.476,0-0.304,0.986-0.787,0.803
		c-0.301,0.586-0.938,0.801-1.579,0.586c-0.145,0-0.292,0.4-0.292,0.583h-0.49c0,0,0,0.218,0,0.416h-0.303
		c-1.104,0.203-2.064,0-2.994-0.599c-0.64-0.185-1.123-0.75-1.579-1.184C70.927,46.289,70.159,43.883,70.159,41.71z M83.731,55.383
		c-0.323,0.601,0.148,1.184-0.165,1.77l0.165,0.986v1.79c-0.489,0.416,0.294,1.187-0.323,1.587c0,0.4,0.158,0.801,0,1.202
		c0.158,0.986-0.315,1.77-0.315,2.576c-0.472,0-0.146,0.987-0.637,0.768c-0.298,0.4,0,0.985-0.298,0.985
		c0.151,0.219,0.298,0.401,0,0.619c-0.167,0-0.321-0.619-0.488-0.218l-0.939-0.183c-0.147-1.204-0.632-1.972-1.253-2.778
		c-0.283-0.616-0.637-0.999-0.956-1.184c-0.301-0.986-1.259-1.788-1.72-2.776c-0.791-0.599-1.11-1.77-1.73-2.571
		c-0.32-0.403-0.64-0.986-0.951-1.184c-0.466,0-0.319,1-0.466,1.367c-0.326,0.618-0.155,1.389,0,1.79
		c0,0.416-0.155,0.804-0.326,1.001c0.171,0.586,0,0.986-0.146,1.572c0.146,0,0.146,0.215,0,0.4c0.317,0,0.146,0.401,0.146,0.586
		l-0.146-0.185c-0.173,0.185,0.146,0.185,0.146,0.4c-0.319,0.586-0.146,1.369-0.146,1.772c0,0.401-0.32,0.585,0,0.985
		c0,0.219-0.32,0.219-0.467,0.219c0-0.219-0.172-0.4-0.172-0.4c-0.148,0-0.312,0.181-0.148,0.4c0.148,0.181-0.164,0.586,0,0.768
		c-0.319,0-0.319,0.805-0.791,0.218c-0.165,0-0.312,0-0.312-0.218c0.146-0.768,0.464-1.168,0.464-1.754
		c0.319-0.4-0.317-1.001,0.167-1.607c0.152-1.184-0.167-2.17,0.152-3.56c-0.152-1,0.338-2.17,0.155-3.375
		c-0.116-0.802,0.312-1.367,0-2.355c0.164-0.986,0.312-2.191,0.312-3.375c0.318-0.586,0.785,0,1.111,0.198
		c0.933,1.572,2.019,3.014,3.147,4.546c0.595,0.821,1.419,1.205,1.72,2.376c0.637,0.986,1.431,1.585,2.062,2.574
		c0.613-0.186,0.466-0.771,0.792-1.372c0-0.618-0.326-1.202,0-1.604c0.148-0.986,0.019-1.754,0.148-2.756
		c0.071-1.171,0.146-2.374,0.468-3.362c0.167-0.985,0.79-0.198,1.251-0.4c0.166-0.4,0.324-0.784,0.638-0.986l0.145,0.202
		C83.879,52.422,83.566,53.811,83.731,55.383z"/>
	<path style="fill:#FFFFFF;" d="M131.48,33.13c0.385-0.089,0.744-0.291,1.058-0.381c0.31-0.073,0.913,0.217,1.275,0.073
		c0.095-0.038,0.186-0.2,0.31-0.236c0.311-0.111,0.604-0.077,0.919-0.168c0.745-0.201,1.546-0.402,2.094-0.817
		c0.219-0.151,0.219-0.425,0.371-0.642c0.12-0.149,0.358-0.221,0.524-0.331c0.255-0.197,0.476-0.547,0.605-0.856
		c0.106-0.236,0.124-0.679,0.25-0.878c0.004-0.565,0.46-0.439,0.607-0.82c0.091-0.221,0.054-0.436,0.145-0.641
		c0.163-0.455,0.349-0.965,0.477-1.458c0.056-0.236-0.035-0.51-0.072-0.642c-0.15-0.598-0.133-1.238-0.515-1.603
		c0.039-0.076,0.295-0.33,0.384-0.403c-0.016-0.585-0.312-0.602-0.693-0.82c-0.164-0.205-0.332-0.423-0.513-0.642
		c-0.584-0.929-0.943-1.97-1.88-2.538c-0.583-0.362-1.331-0.31-1.987-0.583c-0.128-0.053-0.186-0.218-0.31-0.273
		c-0.515-0.238-1.607-0.348-2.358-0.331c-0.106,0.072-0.256,0.053-0.379,0.093c-0.26,0.127-0.53,0.255-0.788,0.381
		c-0.273,0.091-0.619,0.072-0.913,0.13c-0.476,0.108-1.167-0.11-1.552,0.071c-0.093,0.04-0.184,0.2-0.308,0.238
		c-0.329,0.128-0.694,0.075-0.988,0.202c-0.769,0.345-1.53,0.821-2.297,1.152c-0.368,0.163-0.749,0.289-1.061,0.509
		c-0.312,0.221-0.751,0.879-0.965,1.223c-0.076,0.145-0.097,0.313-0.203,0.439c0.054,0.074,0.127,0.125,0.203,0.165
		c-0.114,0.364-0.242,0.729-0.384,1.093c-0.108,0.347-0.112,0.749-0.199,1.115c-0.04,0.216,0,0.564,0.035,0.714
		c0.069,0.309,0.018,0.542,0.106,0.818c0.182,0.587,0.454,1.185,0.655,1.734c0.13,0.384,0.057,0.785,0.273,1.079
		c0.168,0.254,0.623,0.201,0.894,0.381c0.353,0.223,0.441,0.748,0.678,1.113c0.125,0.131,0.255,0.274,0.369,0.405
		c1.273,0.017,1.438,1.091,2.441,1.351c0.771,0.217,1.536,0.182,2.336,0.383C130.415,33.001,131.114,33.206,131.48,33.13z
		 M127.659,25.325c-0.927,0-3.129,0.383-3.594-0.771c-0.694-2.055,2.088-3.209,3.245-3.466c3.013-1.028,5.332-0.643,8.345-0.13
		v-0.769c1.159,0.512,2.898,2.439,2.55,3.979c-0.348,1.54-1.391,1.157-2.664,1.157C132.991,25.325,130.323,25.325,127.659,25.325z"
		/>
	<path style="fill:#FFFFFF;" d="M18.206,34.118c0,0.218-0.099,0.342,0.092,0.455c0-0.113,0-0.236,0-0.33L18.206,34.118z"/>
	<path style="fill:#FFFFFF;" d="M51.162,23.999c1.89-2.483,2.834-4.964,1.89-7.446c-0.945-2.484-1.89-5.793-6.117-4.984
		l-1.046,0.447c0.55,5.364-0.394,10.328-1.339,14.465C44.55,28.964,49.274,25.652,51.162,23.999z"/>
	<path style="fill:#FFFFFF;" d="M35.203,39.444c1.231,0.664,3.252-0.507,3.858-1.846c1.212-2.68-1.377-4.301-3.672-4.452
		c0,0-0.959,0.332-0.864,0.694C34.944,35.438,33.358,38.112,35.203,39.444z"/>
	<path style="fill:#FFFFFF;" d="M26.824,37.408l-0.642-1.038c-0.399-0.245-0.171,0.532-0.399,0.532
		c-0.194,0.75-0.822,1.524-1.017,2.319c0,0.489-0.194,1.039,0.194,1.527c0.398,0,1.051-0.246,1.634,0c0.229,0,0.822,0,0.627-0.776
		C27.221,39.221,26.594,38.426,26.824,37.408z"/>
	<path style="fill:#FFFFFF;" d="M60.177,56.718c1.212-2.68-1.377-4.302-3.672-4.452c0,0-0.959,0.332-0.864,0.693
		c0.42,1.598-1.167,4.273,0.679,5.604C57.551,59.228,59.572,58.057,60.177,56.718z"/>
</g>
</svg>
