<?xml version="1.0" encoding="iso-8859-1"?>
<!-- Generator: Adobe Illustrator 17.1.0, SVG Export Plug-In . SVG Version: 6.00 Build 0)  -->
<!DOCTYPE svg PUBLIC "-//W3C//DTD SVG 1.1//EN" "http://www.w3.org/Graphics/SVG/1.1/DTD/svg11.dtd">
<svg version="1.1" id="Layer_1" xmlns="http://www.w3.org/2000/svg" xmlns:xlink="http://www.w3.org/1999/xlink" x="0px" y="0px"
	 viewBox="0 0 162.102 158.992" style="enable-background:new 0 0 162.102 158.992;" xml:space="preserve">
<g>
	<polygon style="fill:#D03F2B;" points="129.867,55.875 140.61,55.875 140.61,34.383 162.102,34.383 162.102,23.641 140.61,23.641 
		140.61,2.148 129.867,2.148 129.867,23.641 108.375,23.641 108.375,34.383 129.867,34.383 	"/>
	<path style="fill:#D03F2B;" d="M49.633,158.992c37.008,0,51.719-19.61,51.719-35.727c0-13.125-4.906-21.703-19.742-32.82
		c-15.047-10.976-18.727-17.172-4.36-28.281c8.094-6.258,13.758-14.602,13.758-24.898c0-11.219-4.586-21.398-13.211-26.344h12.227
		L100.43,0c0,0-39.242,0-46.578,0C24.774,0,10.508,17.43,10.508,36.602c0,19.594,13.445,35.031,39.695,35.031
		c-4.07,8.211-2.438,15.805,4.219,21.227C9.594,92.86,0,112.531,0,127.688C0,147.32,22.57,158.992,49.633,158.992z M28.031,36.312
		C25.86,19.82,34.281,7.203,46.836,7.578c12.547,0.375,23.289,13.906,25.461,30.391c2.164,16.492-5.062,27.102-17.609,26.726
		C42.133,64.312,30.196,52.805,28.031,36.312z M52.11,98.438c20.758,0,33.125,12.93,33.125,26.492
		c0,14.219-11.547,25.336-35.469,25.336c-18.703,0-32.211-11.844-32.211-26.07C17.555,110.258,33.406,98.234,52.11,98.438z"/>
</g>
</svg>
