<?xml version="1.0" encoding="utf-8"?>
<!-- Generator: Adobe Illustrator 18.1.1, SVG Export Plug-In . SVG Version: 6.00 Build 0)  -->
<!DOCTYPE svg PUBLIC "-//W3C//DTD SVG 1.1//EN" "http://www.w3.org/Graphics/SVG/1.1/DTD/svg11.dtd">
<svg version="1.1" id="Layer_1" xmlns="http://www.w3.org/2000/svg" xmlns:xlink="http://www.w3.org/1999/xlink" x="0px" y="0px"
	 viewBox="0 0 203.2 37.7" enable-background="new 0 0 203.2 37.7" xml:space="preserve">
<g id="Layer_13_2_">
	<g>
		<g>
			<g>
				<path fill="#010101" d="M106.2,12.7c0,2.2-1.7,3.9-3.9,3.9s-3.9-1.7-3.9-3.9s1.7-3.9,3.9-3.9C104.5,8.8,106.2,10.6,106.2,12.7"
					/>
				<path fill="#010101" d="M106.2,28.7c0,2.2-1.7,3.9-3.9,3.9s-3.9-1.7-3.9-3.9s1.7-3.9,3.9-3.9S106.2,26.5,106.2,28.7"/>
				<path fill="#010101" d="M58.5,26.2h1.6c6.8,0,9.9-5.2,9.9-9.9c0-2.6-0.9-5-2.4-6.9c-1.9-2-4.3-3.2-7.5-3.2h-1.6v6.3h1.6
					c2.3,0,3.6,1.9,3.6,3.7c0,1.9-1.3,3.7-3.6,3.7h-1.6V26.2z"/>
				<rect x="49.3" y="6.4" fill="#010101" width="6.5" height="29.2"/>
				<path fill="#010101" d="M84.4,35.9c-4.2,0-10.6-2.4-11.1-9.3h6.2c0.4,3.2,3.6,3.6,4.9,3.6c3.3,0,5.2-1.2,5.2-3.2
					c0-2.6-3.3-3-4.9-3.2h-0.4c-2.4-0.3-5-0.6-7-1.7c-2.3-1.3-3.5-3.3-3.7-6.2c-0.1-2.6,0.7-4.9,2.3-6.6c2-2.2,5.2-3.3,8.6-3.3
					c5,0,10.2,2.7,10.6,8.6h-6c-0.3-2-2-3.2-4.6-3.2c-2.9,0-4.6,1.3-4.6,3.5c0,2.7,3.6,3,5,3.2h0.3c4.7,0.6,9.3,1.9,10.5,6.6
					c0.1,0.7,0.1,1.4,0.1,2C95.6,32.4,90,35.9,84.4,35.9"/>
				<path fill="#29ABE2" d="M14.6,8.1c0-3.7-2.9-6.6-6.6-6.6c-3.6,0-6.6,3-6.6,6.6c0,3.7,2.9,6.6,6.6,6.6
					C11.6,14.7,14.6,11.7,14.6,8.1"/>
				<path fill="#010101" d="M22.5,21.9h-7.2c0.4,7.6,6.3,13.4,13.7,14v-6.8C25.8,28.5,22.8,26.2,22.5,21.9 M15.5,19.2h7.2
					c0.7-3.7,3.5-5.9,6.5-6.3V6C21.9,6.5,16.3,12,15.5,19.2 M38.3,21.9c-0.3,4.3-3.3,6.6-6.5,7.2v6.8c7.3-0.7,13.2-6.5,13.7-14H38.3
					z M38.2,19.2h7.2C44.5,12,38.9,6.7,31.7,6v6.9C34.9,13.3,37.6,15.4,38.2,19.2"/>
			</g>
			<g>
				<path fill="#010101" d="M118,13c-0.3,0.3-0.6,0.4-0.9,0.6c-0.3,0.1-0.7,0.1-1.2,0.1s-0.9,0-1.2-0.1c-0.3-0.1-0.7-0.4-1-0.7
					c-0.3-0.3-0.6-0.7-0.6-1.2c-0.1-0.3-0.1-1-0.1-1.9s0-1.4,0.1-1.9c0.1-0.4,0.3-0.9,0.6-1.2c0.3-0.3,0.6-0.6,1-0.7
					C115.1,6,115.6,6,116,6s0.9,0,1.2,0.1c0.3,0.3,0.6,0.4,0.9,0.7c0.3,0.3,0.6,0.7,0.6,1.2c0.1,0.4,0.1,1,0.1,1.9
					c0,0.9,0,1.4-0.1,1.9C118.6,12.3,118.4,12.6,118,13z M116.9,7.7c-0.3-0.3-0.6-0.4-1-0.4c-0.1,0-0.4,0-0.6,0.1
					c-0.1,0.1-0.3,0.1-0.4,0.3c-0.1,0.1-0.3,0.3-0.3,0.6c0,0.3,0,0.7,0,1.6c0,0.7,0,1.3,0,1.6c0,0.3,0.1,0.4,0.4,0.7
					c0.1,0.3,0.6,0.3,0.9,0.3c0.4,0,0.7-0.1,0.9-0.3c0.1-0.3,0.3-0.4,0.4-0.7c0-0.3,0.1-0.7,0.1-1.4s0-1.3-0.1-1.4
					C117.2,8.1,117,8,116.9,7.7z"/>
				<path fill="#010101" d="M124.1,13.9c-0.4,0-0.9-0.1-1.2-0.3c-0.3-0.1-0.7-0.4-1-0.7c-0.3-0.3-0.6-0.7-0.6-1.2
					c-0.1-0.4-0.1-1-0.1-1.9c0-0.9,0-1.4,0.1-1.9c0.1-0.4,0.3-0.9,0.6-1.2c0.3-0.3,0.6-0.6,1-0.7c0.3-0.1,0.7-0.1,1.2-0.1
					c0.7,0,1.4,0.1,1.9,0.6c0.6,0.4,0.9,1,1,1.9h-1.6c-0.1-0.3-0.3-0.6-0.4-0.9c-0.1-0.1-0.4-0.3-0.9-0.3c-0.4,0-0.7,0.1-0.9,0.3
					c-0.1,0.1-0.3,0.4-0.4,0.7c0,0.3-0.1,0.9-0.1,1.4c0,0.7,0,1.3,0.1,1.4c0,0.3,0.1,0.6,0.4,0.7c0.1,0.3,0.4,0.3,0.9,0.3
					c0.4,0,0.7-0.1,0.9-0.3s0.4-0.4,0.4-0.9h1.6c-0.1,0.7-0.4,1.4-1,1.9C125.5,13.6,124.8,13.9,124.1,13.9z"/>
				<path fill="#010101" d="M129.4,13.7V6.1h5v1.3h-3.6v1.9h3v1.3h-3v1.9h3.6v1.3L129.4,13.7z"/>
				<path fill="#010101" d="M141.9,13.7l-0.4-1.4h-2.7l-0.4,1.4h-1.6l2.9-7.8h1.2l2.9,7.8H141.9z M140,8.3l-1,2.9h1.9L140,8.3z"/>
				<path fill="#010101" d="M150.2,13.7l-3-4.7v4.7h-1.4V6.1h1.3l3,4.7V6.1h1.4v7.8h-1.3V13.7z"/>
				<path fill="#010101" d="M154.6,13.7V6.1h1.4v7.8h-1.4V13.7z"/>
				<path fill="#010101" d="M161.6,13.9c-0.4,0-0.9-0.1-1.2-0.3c-0.3-0.1-0.7-0.4-1-0.7c-0.3-0.3-0.6-0.7-0.6-1.2
					c-0.1-0.4-0.1-1-0.1-1.9c0-0.9,0-1.4,0.1-1.9c0.1-0.4,0.3-0.9,0.6-1.2c0.3-0.3,0.6-0.6,1-0.7c0.3-0.1,0.7-0.1,1.2-0.1
					c0.7,0,1.4,0.1,1.9,0.6c0.6,0.4,0.9,1,1,1.9h-1.6c-0.1-0.3-0.3-0.6-0.4-0.9c-0.1-0.1-0.4-0.3-0.9-0.3s-0.7,0.1-0.9,0.3
					c-0.1,0.1-0.3,0.4-0.4,0.7c0,0.3-0.1,0.9-0.1,1.4c0,0.7,0,1.3,0.1,1.4c0,0.3,0.1,0.6,0.4,0.7c0.1,0.3,0.4,0.3,0.9,0.3
					c0.4,0,0.7-0.1,0.9-0.3s0.4-0.4,0.4-0.9h1.6c-0.1,0.7-0.4,1.4-1,1.9C162.9,13.6,162.3,13.9,161.6,13.9z"/>
				<path fill="#010101" d="M116.3,21.9h-1.4v2.9h-1.4V17h3c0.7,0,1.4,0.3,1.9,0.7c0.4,0.4,0.7,1,0.7,1.7c0,0.7-0.3,1.3-0.7,1.7
					C117.7,21.6,117.2,21.9,116.3,21.9z M116.3,18.5h-1.4v2.2h1.4c0.3,0,0.6-0.1,0.9-0.3c0.1-0.1,0.3-0.4,0.3-0.7s-0.1-0.6-0.3-0.7
					C116.9,18.5,116.6,18.5,116.3,18.5z"/>
				<path fill="#010101" d="M125.5,24.8l-1.4-3.2h-1.2v3.2h-1.4V17h3c0.7,0,1.4,0.3,1.9,0.7c0.4,0.4,0.7,1,0.7,1.7
					c0,0.6-0.1,1-0.4,1.3c-0.3,0.3-0.6,0.6-1,0.7l1.7,3.3H125.5z M124.3,18.5h-1.4v2h1.4c0.3,0,0.6-0.1,0.9-0.3
					c0.1-0.1,0.3-0.4,0.3-0.7s-0.1-0.6-0.3-0.7C124.9,18.5,124.6,18.5,124.3,18.5z"/>
				<path fill="#010101" d="M129.7,24.8V17h5v1.3h-3.6v1.9h3v1.3h-3v1.9h3.6v1.3h-5V24.8z"/>
				<path fill="#010101" d="M139.7,24.9c-0.6,0-1.2-0.1-1.6-0.3c-0.4-0.1-0.9-0.4-1.3-0.9l1-1c0.3,0.3,0.6,0.4,0.9,0.4
					c0.3,0.1,0.7,0.1,1,0.1c0.9,0,1.4-0.3,1.4-1c0-0.3,0-0.4-0.1-0.6s-0.3-0.1-0.3-0.3c-0.1,0-0.3-0.1-0.4-0.1l-0.9-0.1
					c-0.7-0.1-1.2-0.3-1.6-0.7c-0.3-0.3-0.6-0.9-0.6-1.4c0-0.7,0.3-1.3,0.7-1.7c0.4-0.4,1.2-0.6,2-0.6c0.6,0,1,0,1.4,0.1
					c0.4,0.1,0.7,0.4,1.2,0.7l-1,1c-0.3-0.1-0.4-0.3-0.7-0.4c-0.4,0.1-0.7,0.1-1,0.1c-0.4,0-0.7,0.1-0.9,0.3s-0.3,0.4-0.3,0.7
					c0,0.1,0,0.3,0,0.3c0,0.1,0.1,0.1,0.3,0.3s0.3,0.1,0.7,0.3l0.9,0.1c0.7,0.1,1.2,0.3,1.4,0.6c0.3,0.3,0.4,0.6,0.6,0.7
					c0.1,0.3,0.1,0.6,0.1,1c0,0.7-0.3,1.3-0.9,1.7C141.3,24.7,140.6,24.9,139.7,24.9z"/>
				<path fill="#010101" d="M145.1,24.8V17h5v1.3h-3.6v1.9h3v1.3h-3v1.9h3.6v1.3h-5V24.8z"/>
				<path fill="#010101" d="M157,24.8l-1.4-3.2h-1.2v3.2H153V17h3c0.7,0,1.4,0.3,1.9,0.7c0.4,0.4,0.7,1,0.7,1.7c0,0.6-0.1,1-0.4,1.3
					c-0.3,0.3-0.6,0.6-1,0.7l1.7,3.3H157z M155.7,18.5h-1.4v2h1.4c0.3,0,0.6-0.1,0.9-0.3c0.1-0.1,0.3-0.4,0.3-0.7s-0.1-0.6-0.3-0.7
					C156.4,18.5,156.1,18.5,155.7,18.5z"/>
				<path fill="#010101" d="M163.9,24.8h-1.2l-2.6-7.8h1.6l1.6,5l1.6-5h1.6L163.9,24.8z"/>
				<path fill="#010101" d="M172.5,24.8l-0.4-1.4h-2.9l-0.4,1.4h-1.6l2.9-7.8h1.2l2.9,7.8H172.5z M170.7,19.3l-1,2.9h1.9L170.7,19.3
					z"/>
				<path fill="#010101" d="M178.6,18.5v6.3h-1.4v-6.3H175v-1.3h5.6v1.3H178.6z"/>
				<path fill="#010101" d="M183,24.8V17h1.4v7.8H183z"/>
				<path fill="#010101" d="M192.1,24.1c-0.3,0.3-0.6,0.4-0.9,0.6c-0.3,0.1-0.7,0.1-1.2,0.1s-0.9,0-1.2-0.1c-0.3-0.1-0.7-0.4-1-0.7
					s-0.6-0.7-0.6-1.2c-0.1-0.4-0.1-1-0.1-1.9s0-1.4,0.1-1.9c0.1-0.4,0.3-0.9,0.6-1.2c0.3-0.3,0.6-0.6,1-0.7
					c0.3-0.1,0.7-0.1,1.2-0.1s0.9,0,1.2,0.1c0.3,0.1,0.7,0.4,1,0.7c0.3,0.3,0.6,0.7,0.6,1.2c0.1,0.4,0.1,1,0.1,1.9s0,1.4-0.1,1.9
					C192.7,23.2,192.5,23.6,192.1,24.1z M190.9,18.8c-0.3-0.3-0.6-0.4-1-0.4c-0.1,0-0.4,0-0.6,0.1c-0.1,0.1-0.3,0.1-0.4,0.3
					c-0.1,0.1-0.3,0.3-0.3,0.6c0,0.3,0,0.7,0,1.6c0,0.7,0,1.3,0,1.6c0,0.3,0.1,0.4,0.4,0.7c0.1,0.3,0.6,0.3,0.9,0.3
					c0.4,0,0.7-0.1,0.9-0.3c0.1-0.3,0.3-0.4,0.4-0.7c0-0.3,0.1-0.7,0.1-1.4c0-0.7,0-1.3-0.1-1.4C191.2,19.2,191.1,18.9,190.9,18.8z"
					/>
				<path fill="#010101" d="M200.1,24.8l-3-4.7v4.7h-1.4V17h1.3l3,4.7V17h1.4v7.8H200.1z"/>
				<path fill="#010101" d="M115.4,35.9c-0.6,0-1.2-0.1-1.6-0.3c-0.4-0.1-0.9-0.4-1.3-0.9l1-1c0.3,0.3,0.6,0.4,0.9,0.4
					c0.3,0.1,0.7,0.1,1,0.1c0.9,0,1.4-0.3,1.4-1c0-0.3,0-0.4-0.1-0.6c-0.1-0.1-0.3-0.1-0.3-0.3c-0.1,0.3-0.3,0.3-0.4,0.3l-0.9-0.1
					c-0.7-0.1-1.2-0.3-1.6-0.7c-0.3-0.3-0.6-0.9-0.6-1.4c0-0.7,0.3-1.3,0.7-1.7c0.4-0.4,1.2-0.6,2-0.6c0.6,0,1,0,1.4,0.1
					s0.7,0.4,1.2,0.7l-1,1c-0.3-0.1-0.4-0.3-0.7-0.4c-0.3-0.1-0.6-0.1-0.9-0.1c-0.4,0-0.7,0.1-0.9,0.3c-0.1,0.1-0.3,0.4-0.3,0.7
					c0,0.1,0,0.3,0,0.3c0,0.1,0.1,0.1,0.3,0.3c0.1,0.1,0.3,0.1,0.7,0.3l0.9,0.1c0.7,0.1,1.2,0.3,1.4,0.6c0.3,0.3,0.4,0.6,0.6,0.7
					c0.1,0.3,0.1,0.6,0.1,1c0,0.7-0.3,1.3-0.9,1.7C117,35.7,116.3,35.9,115.4,35.9z"/>
				<path fill="#010101" d="M125.6,35c-0.3,0.3-0.6,0.4-0.9,0.6c-0.3,0.1-0.7,0.1-1.2,0.1s-0.9,0-1.2-0.1c-0.3-0.1-0.7-0.4-1-0.7
					c-0.3-0.3-0.6-0.7-0.6-1.2c-0.1-0.4-0.1-1-0.1-1.9c0-0.9,0-1.4,0.1-1.9s0.3-0.9,0.6-1.2c0.3-0.3,0.6-0.6,1-0.7
					c0.3-0.1,0.7-0.1,1.2-0.1s0.9,0,1.2,0.1c0.3,0.1,0.7,0.4,1,0.7c0.3,0.3,0.6,0.7,0.6,1.2c0.1,0.4,0.1,1,0.1,1.9
					c0,0.9,0,1.4-0.1,1.9C126.2,34.3,126.1,34.7,125.6,35z M124.5,29.8c-0.3-0.3-0.6-0.4-1-0.4c-0.1,0-0.4,0-0.6,0.1
					s-0.3,0.1-0.4,0.3c-0.1,0.1-0.3,0.3-0.3,0.6c0,0.3,0,0.7,0,1.6c0,0.7,0,1.3,0,1.6c0,0.3,0.1,0.4,0.4,0.7
					c0.1,0.3,0.6,0.3,0.9,0.3c0.4,0,0.7-0.1,0.9-0.3c0.1-0.3,0.3-0.4,0.4-0.7c0-0.3,0.1-0.7,0.1-1.4c0-0.7,0-1.3-0.1-1.4
					C124.8,30.3,124.6,30,124.5,29.8z"/>
				<path fill="#010101" d="M131.7,35.9c-0.4,0-0.9-0.1-1.2-0.3c-0.3-0.1-0.7-0.4-1-0.7s-0.6-0.7-0.6-1.2c-0.1-0.4-0.1-1-0.1-1.9
					c0-0.9,0-1.4,0.1-1.9s0.3-0.9,0.6-1.2c0.3-0.3,0.6-0.6,1-0.7c0.3-0.1,0.7-0.1,1.2-0.1c0.7,0,1.4,0.1,1.9,0.6
					c0.6,0.4,0.9,1,1,1.9H133c-0.1-0.3-0.3-0.6-0.4-0.9c-0.1-0.1-0.4-0.3-0.9-0.3c-0.4,0-0.7,0.1-0.9,0.3c-0.1,0.1-0.3,0.4-0.4,0.7
					c0,0.3-0.1,0.9-0.1,1.4c0,0.7,0,1.3,0.1,1.4c0,0.3,0.1,0.6,0.4,0.7c0.1,0.3,0.4,0.3,0.9,0.3c0.4,0,0.7-0.1,0.9-0.3
					s0.4-0.4,0.4-0.9h1.6c-0.1,0.7-0.4,1.4-1,1.9C133.1,35.7,132.4,35.9,131.7,35.9z"/>
				<path fill="#010101" d="M137,35.9v-7.8h1.4v7.8H137z"/>
				<path fill="#010101" d="M141.5,35.9v-7.8h5v1.3h-3.6v1.9h3v1.3h-3v1.9h3.6v1.3h-5V35.9z"/>
				<path fill="#010101" d="M152.3,29.5v6.3h-1.4v-6.3h-2v-1.3h5.6v1.3H152.3z"/>
				<path fill="#010101" d="M160.2,32.7v3.2h-1.4v-3.2l-2.3-4.6h1.6l1.4,3.2l1.4-3.2h1.6L160.2,32.7z"/>
			</g>
		</g>
	</g>
</g>
</svg>
