<?xml version="1.0" encoding="iso-8859-1"?>
<!-- Generator: Adobe Illustrator 17.1.0, SVG Export Plug-In . SVG Version: 6.00 Build 0)  -->
<!DOCTYPE svg PUBLIC "-//W3C//DTD SVG 1.1//EN" "http://www.w3.org/Graphics/SVG/1.1/DTD/svg11.dtd">
<svg version="1.1" id="Layer_1" xmlns="http://www.w3.org/2000/svg" xmlns:xlink="http://www.w3.org/1999/xlink" x="0px" y="0px"
	 viewBox="0 0 161.953 162.789" style="enable-background:new 0 0 161.953 162.789;" xml:space="preserve">
<g>
	<path style="fill:#3E739D;" d="M80.867,40.696c11.562,0,22.008,4.734,29.523,12.367h51.555V32.024h0.008
		C161.953,14.336,147.609,0,129.922,0H42.39v40.375h-6.562V0h-3.797c-0.25,0-0.492,0.008-0.742,0.016v40.36h-6.562V0.844
		c-1.594,0.375-3.141,0.859-4.625,1.461v38.07h-6.57V5.891C5.352,11.688,0,21.227,0,32.024v21.039h51.352
		C58.867,45.43,69.312,40.696,80.867,40.696z M119.719,18.524c0-2.836,2.297-5.133,5.14-5.133h17.312
		c2.836,0,5.141,2.297,5.141,5.133v17.703c0,2.836-2.305,5.133-5.141,5.133h-17.312c-2.844,0-5.14-2.297-5.14-5.133V18.524z"/>
	<path style="fill:#3E739D;" d="M101.891,58.133c-2.344-2.047-4.984-3.766-7.852-5.07c-4.016-1.828-8.476-2.852-13.172-2.852
		c-4.688,0-9.148,1.023-13.164,2.852c-2.867,1.304-5.516,3.023-7.851,5.07c-6.68,5.86-10.906,14.446-10.906,24
		c0,17.602,14.32,31.922,31.922,31.922c17.609,0,31.93-14.32,31.93-31.922C112.797,72.578,108.57,63.992,101.891,58.133z
		 M80.977,105.727c-13.031,0-23.594-10.562-23.594-23.594c0-13.031,10.562-23.594,23.594-23.594s23.594,10.562,23.594,23.594
		C104.57,95.164,94.008,105.727,80.977,105.727z"/>
	<path style="fill:#3E739D;" d="M32.031,162.789h97.891c17.688,0,32.031-14.344,32.031-32.031V58.133h-47.312
		c4.82,6.774,7.672,15.055,7.672,24c0,22.883-18.555,41.438-41.445,41.438c-22.883,0-41.438-18.555-41.438-41.438
		c0-8.945,2.844-17.226,7.672-24H0v72.625C0,148.445,14.344,162.789,32.031,162.789z"/>
</g>
</svg>
