<?xml version="1.0" encoding="iso-8859-1"?>
<!-- Generator: Adobe Illustrator 17.1.0, SVG Export Plug-In . SVG Version: 6.00 Build 0)  -->
<!DOCTYPE svg PUBLIC "-//W3C//DTD SVG 1.1//EN" "http://www.w3.org/Graphics/SVG/1.1/DTD/svg11.dtd">
<svg version="1.1" id="Layer_1" xmlns="http://www.w3.org/2000/svg" xmlns:xlink="http://www.w3.org/1999/xlink" x="0px" y="0px"
	 viewBox="0 0 325.509 348.652" style="enable-background:new 0 0 325.509 348.652;" xml:space="preserve">
<g>
	<path style="fill:#5A739D;" d="M146.599,16.164c4.059,0,8.859,0.898,14.527,3.262c0,0,17.836,33.5,19.641,60.137
		c0,0-7.992,54.93-12.332,72.133c0,0,95.301,0,119.602,0c35.457,0,23.293,45.172-12.18,45.172c35.472,0,23.293,45.242-12.164,45.242
		c35.457,0,23.266,45.172-12.207,45.172c35.472,0,23.281,45.203-12.18,45.203c-18.586,0-95.145,0-148.282,0
		c-11.437,0-21.851-13.035-30.277-13.035c-13.941,0-22.707,0-22.707,0s-43.184-34.379-8.063-119.137c0,0,29.438-17.16,41.281-27.242
		c11.844-10.051,60.262-88.367,60.262-98.152c0-9.785-1.106-52.145-1.106-52.145S135.524,16.164,146.599,16.164 M146.599,0
		L146.599,0c-14.027,0-24.371,6.914-28.976,12.793c-2.281,3.024-3.473,6.633-3.418,10.398c0,0.395,0.98,38.274,1.094,50.114
		c-4.914,14.168-45.356,79.176-54.606,87.492c-8.75,7.473-31.035,20.926-38.875,25.531c-3.035,1.766-5.473,4.535-6.801,7.797
		c-39.32,94.895,10.762,136.285,12.906,138.008c2.922,2.308,6.41,3.543,10.117,3.543h21.531c1.246,0.574,3.64,2.113,5.266,3.164
		c6.453,4.129,15.281,9.813,26.187,9.813h148.282c29.707,0,49.668-22.957,49.668-44.364c0-4.91-1.008-9.504-2.899-13.687
		c9.547-8.555,15.051-20.242,15.051-31.484c0-4.91-0.968-9.504-2.859-13.688c9.535-8.566,15.035-20.242,15.035-31.555
		c0-4.844-0.98-9.488-2.883-13.617c9.547-8.57,15.09-20.242,15.09-31.566c0-9.449-3.766-17.945-10.512-24.008
		c-4.676-4.129-13.172-9.141-26.961-9.141h-99.848c4.07-22.594,8.398-51.976,8.621-53.629c0.141-1.16,0.211-2.293,0.114-3.457
		c-2.032-29.73-20.703-65.133-21.516-66.59c-1.75-3.301-4.551-5.906-7.992-7.391C160.259,1.551,153.274,0,146.599,0L146.599,0z"/>
</g>
</svg>
