<?xml version="1.0" encoding="iso-8859-1"?>
<!-- Generator: Adobe Illustrator 17.1.0, SVG Export Plug-In . SVG Version: 6.00 Build 0)  -->
<!DOCTYPE svg PUBLIC "-//W3C//DTD SVG 1.1//EN" "http://www.w3.org/Graphics/SVG/1.1/DTD/svg11.dtd">
<svg version="1.1" id="Layer_1" xmlns="http://www.w3.org/2000/svg" xmlns:xlink="http://www.w3.org/1999/xlink" x="0px" y="0px"
	 viewBox="0 0 175.748 65.576" style="enable-background:new 0 0 175.748 65.576;" xml:space="preserve">
<g>
	<polygon style="fill-rule:evenodd;clip-rule:evenodd;fill:#FFFFFF;" points="99.688,13.859 112.295,13.859 98.853,63.537 
		114.215,63.537 128.158,13.943 141.851,13.692 145.608,0 103.612,0.251 99.688,13.859 	"/>
	<path style="fill-rule:evenodd;clip-rule:evenodd;fill:#FFFFFF;" d="M91.422,1.002c-6.011-1.67-11.521-0.918-16.364,2.337
		c-4.926,3.173-9.1,7.18-12.607,11.94c-7.096,9.351-10.854,20.204-11.354,32.394c0.083,3.59,0.751,7.013,2.004,10.353
		c1.252,3.256,3.59,5.594,7.013,7.097c5.844,1.169,10.937,0.084,15.278-3.34c5.657-4.46,7.937-7.41,11.021-11.744
		c0.876-1.447,2.004-3.451,2.004-3.451s-0.919-0.585-1.503-0.668c-1.253,1.92-2.672,3.757-4.342,5.594
		c-2.004,2.004-4.258,3.59-6.763,4.759c-2.505,1.169-5.26,1.42-8.182,0.835c-3.089-1.503-5.009-3.924-5.677-7.097
		c-0.668-3.172-0.835-6.428-0.417-9.768c0.25-2.588,0.835-5.093,1.67-7.43l19.286-5.594c4.926-1.503,9.101-4.592,12.441-9.184
		c1.168-1.92,2.004-4.091,2.421-6.512c0.501-2.338,0.083-4.592-1.169-6.679C95.012,3.006,93.426,1.67,91.422,1.002L91.422,1.002z
		 M75.392,7.598c3.089-4.258,6.346-6.094,9.769-5.26c4.926,2.337,6.095,6.178,3.673,11.689c-2.505,5.51-7.18,9.602-14.026,12.19
		c-6.095,2.004-9.435,2.922-9.769,2.839c-0.418,0-0.418-0.167,0-0.335c0-0.334,1.002-2.922,2.922-7.597
		C69.882,16.448,72.387,11.939,75.392,7.598L75.392,7.598z"/>
	<path style="fill-rule:evenodd;clip-rule:evenodd;fill:#FFFFFF;" d="M147.695,53.1h14.277v10.353l13.776-0.084V0l-18.034,0.167
		l-30.558,63.37h15.78L147.695,53.1L147.695,53.1z M161.888,22.376l0.084-0.251v18.452h-8.433L161.888,22.376L161.888,22.376z"/>
	<path style="fill-rule:evenodd;clip-rule:evenodd;fill:#FFFFFF;" d="M53.684,19.871c0.585-7.264-0.668-12.357-3.84-15.196
		c-3.256-2.755-6.679-4.258-10.27-4.508L17.116,0L0,63.537h14.11l6.93-24.63l-0.751,3.172c3.339,0.418,7.347,0.334,12.19-0.167
		c4.842-0.584,9.267-2.504,13.275-5.761C49.844,32.895,52.515,27.468,53.684,19.871L53.684,19.871z M32.729,12.691
		c2.337,0,4.091,0.334,5.26,1.002c1.002,1.085,1.252,3.006,0.668,5.928c-0.584,2.838-1.67,5.177-3.34,6.93
		c-2.588,2.087-5.176,3.089-7.681,3.089l-3.924-0.167l4.509-16.448L32.729,12.691L32.729,12.691z"/>
</g>
</svg>
