<?xml version="1.0" encoding="iso-8859-1"?>
<!-- Generator: Adobe Illustrator 17.1.0, SVG Export Plug-In . SVG Version: 6.00 Build 0)  -->
<!DOCTYPE svg PUBLIC "-//W3C//DTD SVG 1.1//EN" "http://www.w3.org/Graphics/SVG/1.1/DTD/svg11.dtd">
<svg version="1.1" id="Layer_1" xmlns="http://www.w3.org/2000/svg" xmlns:xlink="http://www.w3.org/1999/xlink" x="0px" y="0px"
	 viewBox="0 0 162.789 132.297" style="enable-background:new 0 0 162.789 132.297;" xml:space="preserve">
<g>
	<path style="fill:#4DC8F1;" d="M0,117.289c14.781,9.477,32.336,15.008,51.195,15.008c62.008,0,97.039-52.375,94.93-99.351
		c6.524-4.703,12.188-10.586,16.664-17.289c-5.992,2.656-12.43,4.453-19.18,5.258c6.891-4.125,12.188-10.672,14.68-18.477
		c-6.453,3.828-13.601,6.61-21.203,8.11C130.992,4.055,122.312,0,112.703,0C91.148,0,75.304,20.117,80.172,41.008
		C52.414,39.617,27.804,26.32,11.336,6.11c-8.75,15.016-4.539,34.656,10.336,44.594c-5.476-0.172-10.633-1.68-15.133-4.18
		C6.18,62,17.266,76.469,33.328,79.696c-4.703,1.281-9.852,1.57-15.078,0.57c4.242,13.274,16.578,22.922,31.195,23.195
		C35.406,114.469,17.719,119.383,0,117.289z"/>
</g>
</svg>
