<?xml version="1.0" encoding="iso-8859-1"?>
<!-- Generator: Adobe Illustrator 17.1.0, SVG Export Plug-In . SVG Version: 6.00 Build 0)  -->
<!DOCTYPE svg PUBLIC "-//W3C//DTD SVG 1.1//EN" "http://www.w3.org/Graphics/SVG/1.1/DTD/svg11.dtd">
<svg version="1.1" id="Layer_1" xmlns="http://www.w3.org/2000/svg" xmlns:xlink="http://www.w3.org/1999/xlink" x="0px" y="0px"
	 viewBox="0 0 158.055 182.398" style="enable-background:new 0 0 158.055 182.398;" xml:space="preserve">
<g>
	<path style="fill:#CD332C;" d="M102.11,71.141c2.922,0,6.976-1.516,11.164-6.484v5.734h9.648V18.469h-9.648v39.406
		c-1.18,1.476-3.797,3.89-5.68,3.89c-2.07,0-2.57-1.406-2.57-3.492V18.461h-9.656v43.406C95.367,66.992,96.938,71.141,102.11,71.141
		z"/>
	<path style="fill:#CD332C;" d="M59.148,57.438c0,9.148,4.789,13.914,14.148,13.914c7.766,0,13.875-5.188,13.875-13.914V31.992
		c0-8.133-6.047-13.953-13.875-13.953c-8.508,0-14.148,5.617-14.148,13.953V57.438z M69.086,32.844c0-2.844,1.312-4.953,4.024-4.953
		c2.961,0,4.226,2.047,4.226,4.953V57c0,2.828-1.438,4.914-4.039,4.914c-2.664,0-4.211-2.18-4.211-4.914V32.844z"/>
	<polygon style="fill:#CD332C;" points="36.117,70.391 46.992,70.391 46.992,41.836 59.641,0 48.602,0 41.633,28.133 34.133,0 
		23.188,0 36.117,41.836 	"/>
	<path style="fill:#CD332C;" d="M135.922,82.203H22.133C9.906,82.203,0,92.117,0,104.344v55.922
		c0,12.227,9.906,22.133,22.133,22.133h113.789c12.226,0,22.133-9.906,22.133-22.133v-55.922
		C158.055,92.117,148.148,82.203,135.922,82.203z M37.297,165.828H26.945v-57.305H16.227v-9.734h31.781v9.734H37.297V165.828z
		 M74.125,165.828H64.93v-5.453c-1.695,2.008-3.461,3.539-5.289,4.594c-4.953,2.836-11.758,2.781-11.758-7.258v-41.328h9.195v37.898
		c0,1.992,0.484,3.336,2.446,3.336c1.789,0,4.289-2.297,5.406-3.703v-37.531h9.196V165.828z M109.516,155.586
		c0,6.117-2.289,10.867-8.406,10.867c-3.367,0-6.172-1.226-8.734-4.422v3.797h-9.281V98.789h9.281v21.586
		c2.07-2.531,4.89-4.617,8.172-4.617c6.734,0,8.969,5.688,8.969,12.39V155.586z M143.5,142.266h-17.586v9.328
		c0,3.711,0.313,6.914,4.016,6.914c3.883,0,4.11-2.61,4.11-6.914v-3.438h9.461v3.719c0,9.523-4.094,15.297-13.781,15.297
		c-8.781,0-13.266-6.398-13.266-15.297V129.68c0-8.594,5.664-14.547,13.961-14.547c8.82,0,13.086,5.602,13.086,14.547V142.266z"/>
	<path style="fill:#CD332C;" d="M130.024,123.789c-3.406,0-4.11,2.398-4.11,5.797v5h8.125v-5
		C134.039,126.234,133.32,123.789,130.024,123.789z"/>
	<path style="fill:#CD332C;" d="M94.274,124.094c-0.648,0.328-1.274,0.828-1.898,1.508v30.812c0.75,0.805,1.476,1.391,2.18,1.742
		c1.492,0.758,3.688,0.82,4.695-0.508c0.539-0.695,0.805-1.828,0.805-3.406v-25.539c0-1.664-0.336-2.938-0.984-3.797
		C97.961,123.438,95.883,123.281,94.274,124.094z"/>
</g>
</svg>
