<?xml version="1.0" encoding="iso-8859-1"?>
<!-- Generator: Adobe Illustrator 17.1.0, SVG Export Plug-In . SVG Version: 6.00 Build 0)  -->
<!DOCTYPE svg PUBLIC "-//W3C//DTD SVG 1.1//EN" "http://www.w3.org/Graphics/SVG/1.1/DTD/svg11.dtd">
<svg version="1.1" id="Layer_1" xmlns="http://www.w3.org/2000/svg" xmlns:xlink="http://www.w3.org/1999/xlink" x="0px" y="0px"
	 viewBox="0 0 922.222 352.778" style="enable-background:new 0 0 922.222 352.778;" xml:space="preserve">
<g>
	<path style="fill:#58B397;" d="M596.95,237.759c-1.196-0.005-8.303,0.193-8.34-1.664c-0.011-0.612,2.071-2.292,2.446-3.005
		c0.841-1.6,1.185-3.387,1.453-5.152c0.671-4.38,0.633-8.818,0.714-13.235c0.139-7.895,0.637-16.31-2.199-23.846
		c-2.564-6.827-8.535-10.879-15.9-9.875c-5.899,0.8-12.203,4.648-15.807,9.365c-2.102,2.753-2.226,5.394-2.274,8.753
		c-0.07,4.557-0.145,9.119-0.29,13.675c-0.134,4.17-0.284,8.34-0.451,12.51c-0.102,2.474-1.41,7.245,2.076,7.857
		c1.465,0.257,8.937,0.14,9.227,1.884c0.299,1.793-6.642,2.243-7.456,2.185c-6.715-0.489-13.148-0.913-19.793,0.494
		c-0.311,0.064-3.926,0.977-2.875-0.279c1.106-1.315,3.519-1.862,5.064-2.377c1.716-0.58,3.466-1.063,5.192-1.615
		c1.925-0.617,2.285-2.839,2.468-4.616c0.242-2.308,0.075-4.616,0.081-6.934c0.016-4.299,0.295-8.598,0.279-12.902
		c-0.027-7.278,0.048-16.16-4.21-22.445c-7.998-11.775-24.594-2.941-30.612,6.269c-4.41,6.736-2.822,16.294-2.704,23.926
		c0.059,3.848-0.338,7.707-0.075,11.55c0.091,1.299,0.016,3.36,1.212,4.224c1.073,0.778,2.607,0.596,3.852,0.783
		c1.974,0.295,4.114,0.167,5.98,0.977c2.258,0.971-2.51,2.716-3.443,2.753c-4.008,0.161-8.127-0.467-12.166-0.387
		c-3.305,0.065-6.63,0.182-9.854,0.929c-1.052,0.242-2.494,0.8-3.589,0.606c-0.954-0.166,1.02-1.492,1.143-1.556
		c2.36-1.256,4.989-1.894,7.488-2.796c3.185-1.154,2.672-6.993,2.913-9.676c0.541-6.065,0.567-12.167,0.562-18.248
		c0-4.154,0.016-8.319-0.295-12.467c-0.203-2.705,0.016-8.394-2.312-10.358c-1.764-1.487-4.961-0.784-7.123-0.907
		c-0.739-0.043-1.577-0.311-0.777-1.084c1.271-1.224,3.572-0.988,5.171-1.465c3.368-1.009,6.372-2.802,9.274-4.75
		c2.65-1.771,2.065,6.306,2.038,7.691c-0.043,1.991-0.875,5.249,0.424,6.988c1.029,1.379,4.291-2.168,4.982-2.807
		c2.537-2.356,5.611-4.272,8.47-6.204c3.128-2.104,6.334-4.401,10.004-5.442c7.027-2.002,15.206,2.662,17.464,9.612
		c0.907,2.791,1.662,5.512,4.747,2.872c2.918-2.507,6.11-4.664,9.263-6.854c2.977-2.066,6.089-4.401,9.586-5.507
		c3.621-1.138,7.843-0.558,11.275,0.945c6.019,2.64,8.921,8.995,9.918,15.156c1.378,8.566,0.741,17.298,0.225,25.912
		c-0.231,3.832-0.698,7.744-0.639,11.577c0.065,3.676,3.573,5.27,6.823,5.662c1.873,0.225,3.761,0.274,5.627,0.51
		c1.566,0.204-0.923,1.529-1.41,1.691C605.779,237.952,601.123,237.791,596.95,237.759z M678.458,174.52
		c0.209,0.628-10.439,2.184-11.458,2.313c-5.324,0.676-11.053-1.025-16.069,0.934c-0.424,0.161-2.324,0.741-2.233,1.417
		c0.102,0.789,3.725,1.095,4.369,1.191c1.87,0.29,6.333-0.134,6.553,2.608c0.306,3.821-1.368,8.367-2.291,12.038
		c-1.017,4.042-2.176,8.045-3.451,12.011c-2.265,7.015-4.728,14.169-7.94,20.819c-0.322,0.666-0.926,2.152-1.811,2.243
		c-1.036,0.102-1.508-2.522-1.723-3.102c-1.449-3.961-2.936-7.911-4.425-11.856c-3.121-8.281-6.261-16.557-9.451-24.812
		c-1.497-3.87-3.86-8.002-3.758-12.237c0.016-0.542,0.472-3.725-0.161-3.628c-0.982,0.15-1.953,0.698-2.855,1.1
		c-3.26,1.449-7.123,1.905-10.657,2.168c-1.298,0.096-6.646,0.397-7.021,2.41c-0.021,0.113,7.311,0.531,8.046,0.628
		c6.388,0.864,8.008,6.687,10.287,11.813c5.572,12.527,10.287,25.268,14.401,38.342c0.505,1.605,1.03,3.199,1.623,4.771
		c0.478,1.267,1.358,2.641,1.412,4.02c0.096,2.351-1.428,4.637-2.531,6.602c-2.676,4.782-5.155,9.607-8.263,14.137
		c-5.205,7.594-12.73,16.375-22.777,16.375c-2.881,0.021-4.93-0.692-7.564-1.567c-2.151-0.708,1.664,4.508,2.296,5.04
		c5.311,4.46,12.751,1.75,17.637-1.959c11.17-8.475,17.554-22.6,23.455-34.923c7.079-14.775,12.803-30.104,18.216-45.555
		c1.417-4.047,2.823-8.094,4.253-12.135c0.939-2.662,1.299-5.303,4.463-6.016C670.778,179.313,679.371,177.262,678.458,174.52z
		 M721.805,175.448c-2.89-1.664-5.831-0.719-8.482,0.918c-5.142,3.177-9.505,7.353-13.331,11.984
		c-0.569,0.687-3.065,4.336-4.208,3.929c-1.068-0.386-0.762-4.052-0.767-4.868c-0.011-2.163,0.145-4.326,0.048-6.489
		c-0.075-1.54,0.322-5.485-1.044-6.752c0.204,0.188-7.828,4.835-8.826,5.2c-1.79,0.655-3.703,0.859-5.485,1.546
		c-2.029,0.778-2.233,1.583-0.064,1.836c1.953,0.225,4.183,0.22,6.043,0.891c2.861,1.036,2.839,7.573,3.107,9.95
		c0.462,4.133,0.596,8.297,0.596,12.457c0,3.897,0,1.905,0,0.113c0.005,8.056,0.66,16.772-1.728,24.581
		c-0.988,3.252-3.609,3.371-6.081,5.029c-3.327,2.243,0.596,1.358,2.284,1.132c4.033-0.542,8.134-0.204,12.18,0
		c3.671,0.182,7.634,1.052,11.276,0.349c1.615-0.311,3.435-1.132,4.758-2.099c1.022-0.746-0.703-0.762-1.218-0.767
		c-1.661-0.005-3.277,0.172-4.951,0.054c-2.987-0.209-7.589-0.403-9.387-3.247c-1.363-2.157-1.224-5.083-1.116-7.525
		c0.311-7.143-0.515-14.303,0.172-21.43c0.671-6.977,4.379-12.269,9.559-16.831c2.973-2.608,9.258-7.235,12.822-3.081
		c1.524,1.771,0.655,4.288,1.943,5.947c1.248,1.605,4.514-3.612,4.852-4.471C725.988,180.697,724.695,177.107,721.805,175.448z
		 M750.843,187.363c0.075-1.578-0.081-3.655,0.934-4.981c0.633-0.821,2.308-0.569,3.193-0.563c5.651,0.054,11.399-0.51,16.729-2.399
		c2.104-0.746,4.288-1.535,6.174-2.742c0.37-0.236,2.246-2.056,0.773-1.739c-2.015,0.429-3.98,1.127-5.965,1.685
		c-3.016,0.848-6.397,0.789-9.505,0.789c-3.298,0-6.655,0.494-9.929-0.145c-2.394-0.467-1.685-3.655-1.508-5.523
		c0.284-3,0.37-6.022,0.821-9.006c0.349-2.281,0.896-4.277,1.991-6.306c0.284-0.537,1.288-2.641-0.14-1.707
		c-2.184,1.422-4.098,3.816-5.557,5.941c-2.348,3.408-2.778,7.09-3.116,11.126c-0.204,2.464,0.467,5.77-3.038,5.378
		c-2.6-0.29-4.396-0.955-6.757,0.402c-0.365,0.204-3.955,2.297-2.839,2.855c3,1.492,7.227,0.494,10.439,1.234
		c2.533,0.591,1.181,7.546,1.143,9.457c-0.161,8.587-0.424,17.212-0.247,25.799c0.145,6.741,0.564,15.253,6.639,19.509
		c5.652,3.956,13.037,2.544,18.753-0.467c2.662-1.395,8.15-4.626,8.914-7.825c0.43-1.782-3.032,1.761-3.306,1.986
		c-2.855,2.27-6.277,3.424-9.908,3.574c-17.566,0.724-15.046-20.744-14.899-32.551C750.693,196.551,750.618,191.957,750.843,187.363
		z M808.103,233.218c-1.886-0.161-3.837-0.043-5.694-0.44c-2.726-0.574-2.823-2.796-3.016-5.249
		c-0.569-7.154-0.606-14.416-0.762-21.591c-0.386-17.99-0.467-36.002-0.306-53.997c0.081-9.033,0.258-18.072,0.596-27.099
		c0.172-4.519,0.317-9.043,0.687-13.552c0.129-1.567,0.118-3.328,0.58-4.841c0.129-0.408,1.09-2.028-0.102-1.594
		c-2.831,1.036-5.158,2.903-8.201,3.687c-2.002,0.515-4.06,0.762-6.102,1.068c-1.342,0.199-3.462,0.199-4.471,1.283
		c-1.068,1.159,6.864,0.725,7.777,1.165c1.224,0.59,1.245,3.531,1.417,4.68c0.295,2.002,0.462,4.02,0.58,6.038
		c0.505,8.641,1.213,17.288,1.428,25.94c0.22,8.866,0.059,17.738,0.059,26.61c0,15.006,0.51,30.028-0.338,45.029
		c-0.193,3.435-0.327,6.966-0.934,10.364c-0.515,2.898-2.19,2.903-4.581,3.676c-2.246,0.724-4.371,1.546-6.26,2.979
		c-2.327,1.766,1.089,0.585,2.045,0.408c6.736-1.272,14.021-1.594,20.84-0.918c2.579,0.258,6.097,0.027,8.002-2.088
		C812.579,233.406,808.796,233.277,808.103,233.218z M866.684,224.062c0,1.401-1.052,2.614-1.997,3.532
		c-2.573,2.506-5.759,4.557-8.92,6.226c-8.85,4.68-20.81,7.637-29.835,1.771c-6.596-4.288-9.457-12.242-10.189-19.756
		c-0.542-5.485-0.14-11.314,1.409-16.74c0.123-4.122,0.719-8.244,1.642-12.205c3.73-15.951,11.394-30.994,17.851-45.958
		c6.626-15.351,13.868-31.5,15.266-48.347c1.293-15.553-0.271-32.889-7.479-46.929c-2.506-4.884-5.914-9.36-10.882-11.936
		c-4.259-2.206-8.673,0.156-10.785,4.106c-5.474,10.229-1.39,24.125,1.446,34.526c3.507,12.87,7.13,25.579,6.55,39.066
		c-0.284,6.596-1.487,13.149-3.714,19.37c-0.499,1.385-7.535,16.301-8.362,15.7c-0.456-0.327,1.465-5.753,1.54-6.027
		c1.138-4.365,2.233-8.723,2.888-13.193c1.258-8.619,1.178-17.341,0.134-25.976c-2.023-16.659-7.017-33.098-6.204-50.026
		c0.317-6.58,1.589-14.995,7.506-18.983c5.976-4.025,12.068-0.886,16.694,3.532c9.913,9.483,14.196,23.459,16.112,36.683
		c1.959,13.482,1.074,27.318-2.963,40.36c-4.17,13.487-10.361,26.45-16.477,39.137c-5.614,11.663-11.625,23.465-15.242,35.948
		c5.56-7.143,15.296-13.455,24.066-13.423c6.905,0,12.994,4.487,14.73,11.217c0.467,1.798,0.628,3.666,0.51,5.512
		c-0.091,1.422-0.958,2.92-0.59,4.353c0.284,1.111,5.16-0.784,2.391,1.487c-1.709,1.406-4.154,1.938-6.236,2.56
		c-3.693,1.106-7.299,2.346-11.072,3.177c-4.028,0.891-8.115,1.492-12.212,1.953c-2.058,0.231-4.125,0.43-6.191,0.606
		c-1.524,0.129-4.098-0.172-5.249,1.1c-1.487,1.637-0.354,5.941-0.038,7.798c0.628,3.762,1.946,7.417,4.213,10.509
		c4.358,5.941,11.593,8.657,18.801,8.657c7.425,0,14.588-3.225,19.455-8.855C865.482,224.325,866.684,222.924,866.684,224.062z
		 M824.465,201.741c3.819,0.617,8.44-0.328,12.256-0.682c4.932-0.456,10.229-0.671,15.001-2.099
		c3.489-1.052,3.966-3.853,3.569-7.149c-0.896-7.337-6.151-13.337-13.858-13.273c-7.908,0-13.954,6.8-16.635,13.664
		C824.078,194.039,821.204,201.215,824.465,201.741z M846.74,174.52C852.652,174.52,839.366,174.493,846.74,174.52L846.74,174.52z"
		/>
	<path style="fill:#C6BAB4;" d="M636.408,107.298c-5.904-11.196-16.246-19.718-28.155-23.813
		c-11.727-4.031-24.474-4.256-36.694-2.947c-12.274,1.315-24.283,4.256-36.098,7.718c-8.609,2.528-17.185,5.201-25.834,7.605
		c-8.072,2.249-16.689,5.308-25.169,5.088c1.556-6.209,6.094-22.321-4.723-22.6c-8.458-0.639-12.323,11.056-9.022,17.421
		c1.108,2.13,2.882,3.928,5.013,5.034c0.472,0.247,2.549,0.821,2.41,1.363c-0.204,0.751-0.596,1.529-0.859,2.254
		c-2.045,5.571-4.275,11.067-6.591,16.52c-4.685,11.024-9.693,21.903-14.432,32.9c-4.718,10.965-8.866,22.176-13.836,33.034
		c0.628-5.372,0.038-13.804-4.669-17.411c-4.922-3.784-11.451,0.258-15.097,3.918c-4.46,4.476-7.597,10.616-10.449,16.192
		c-0.918,1.792-1.777,3.612-2.603,5.453c-0.07,0.124-0.134,0.263-0.199,0.37c-1.768,2.801-3.556,5.598-5.383,8.367
		c-3.424,5.174-7.307,10.154-11.512,14.716c-3.98,4.321-8.485,8.335-13.764,10.998c-4.017,2.029-11.719,4.61-15.073,0.054
		c-2.82-3.828-2.437-9.512-1.83-13.955c0.333-2.464,0.896-4.879,1.433-7.299c0.263-1.186,1.353-0.896,2.276-0.955
		c1.648-0.091,3.255-0.489,4.857-0.848c12.097-2.716,22.289-10.337,25.856-22.558c1.938-6.628,0.36-14.459-7.439-15.747
		c-6.969-1.149-13.522,4.02-17.848,8.888c-4.75,5.356-8.737,11.856-11.563,18.833c-0.021,0.038-0.043,0.086-0.059,0.123
		c-0.947,1.755-1.935,3.494-2.955,5.211c-4.251,7.16-9.054,13.976-14.078,20.615c-1.999,2.646-4.056,5.319-6.654,7.406
		c-1.802,1.45-5.578,3.914-8.002,2.787c-4.591-2.136-3.294-9.393-2.516-13.274c1.496-7.482,3.856-14.835,6.356-22.026
		c5.595-16.079,12.7-31.568,19.105-47.331c12.315,5.544,27.307,12.993,40.711,6.333c5.193-2.581,9.119-7.439,8.324-13.498
		c-0.751-5.683-5.49-9.323-10.39-11.555c1.09,0.499,4.675,2.066-0.032-0.027c0.016,0.011,0.043,0.027,0.054,0.032
		c-0.011-0.005-0.021-0.005-0.032-0.011c-0.091-0.043-0.185-0.091-0.276-0.134c-0.011,0,0.102,0.054,0.271,0.134
		c-3.011-1.594-4.895,3.209-1.8,4.669c2.713,1.277,5.176,1.46,7.109,4.068c3.271,4.396,1.175,10.315-2.995,13.267
		c-11.933,8.426-28.885,0.397-40.432-4.551c4.629-10.498,8.898-21.296,12.513-32.18c1.857-5.603,3.628-11.308,4.624-17.137
		c0.746-4.326,1.873-9.988-0.314-14.078c-0.934-1.75-2.775-2.995-4.814-2.963c-1.508,0.021-2.219,2.383-0.413,2.383
		c2.297,0,2.657,2.528,2.619,4.321c-0.118,5.544-2.362,11.083-4.24,16.235c-3,8.211-6.446,16.251-9.856,24.296
		c-1.782,4.202-3.561,8.399-5.343,12.596c-0.467,1.095-0.821,2.324-1.369,3.376c-0.236,0.445-2.96-0.805-3.502-0.988
		c-11.44-3.859-26.379-6.542-36.934,1.052c-2.902,2.088-5.262,4.927-6.404,8.356c-0.842,2.528-1.476,7.143,0.799,9.188
		c1.197,1.068,2.918,0.027,3.256-1.337c0.343-1.347-1.127-2.694-1.487-3.907c-0.9-3.054,0.767-6.339,2.693-8.587
		c4.115-4.798,10.707-6.478,16.768-6.929c8.234-0.612,16.408,1.723,24.012,4.642c-5.028,11.518-9.91,23.132-14.373,34.88
		c-1.357,3.574-2.731,7.218-4.033,10.895c-0.596,0.767-0.966,2.233-1.272,2.855c-0.836,1.68-1.807,3.29-2.838,4.862
		c-1.883,2.861-3.996,5.555-5.985,8.34c-3.969,5.539-7.462,11.432-8.791,18.194c-2.338-2.265-4.377-4.063-7.735-4.53
		c-4.055-0.563-8.555-0.327-12.633-0.091c-7.723,0.451-14.814,4.111-21.642,7.428c11.301-13.52,22.549-27.087,34.044-40.446
		c2.779-3.225,5.568-6.44,8.379-9.639c1.405-1.599,2.815-3.193,4.232-4.782c0.852-0.955,2.913-2.48,3.201-3.805
		c0.44-2.002-1.925-1.481-2.74-0.66c-1.218,1.24-3.165,2.002-4.785,2.544c-3.718,1.24-7.767,1.224-11.543,0.236
		c-3.605-0.939-5.917-3.043-8.98-4.943c-3.062-1.9-5.122-0.107-6.2,2.871c-1.711,4.75-3.315,9.516-5.649,14.008
		c-4.516,8.7-9.441,17.239-14.686,25.515c-2.306,3.644-4.651,7.39-7.52,10.616c-3.815,4.283-7.741,10.15-13.672,11.573
		c-7.429,1.777-5.294-8.358-4.259-12.447c2.097-8.26,5.062-16.316,8.137-24.259c1.512-3.902,3.101-7.766,4.747-11.609
		c0.827-1.921,1.662-3.837,2.51-5.748c0.676-1.519,1.684-3.059,1.727-4.771c0.059-2.426-2.822-4.245-4.865-2.801
		c-1.888,1.336-2.838,3.854-3.728,5.893c-2.172,4.97-4.511,9.854-6.603,14.845c-2.178,2.362-3.664,5.201-6.196,7.288
		c-3.282,2.716-7.354,2.925-10.083-0.671c-1.76-2.324,0.841-5.163,1.861-7.503c1.829-4.229,3.486-8.523,4.908-12.907
		c1.609-4.981,5.422-12.731,2.564-17.818c-1.583-2.823-4.919-2.93-7.462-1.358c-2.693,1.664-4.087,4.873-5.085,7.745
		c-2.629,7.541-2.892,16.343-1.647,24.184c0.328,2.077,1.389,4.503,1.126,6.607c-0.225,1.787-1.324,3.322-2.146,4.873
		c-1.92,3.628-3.867,7.24-5.969,10.766c-3.782,6.365-7.993,12.446-13.914,17.004c-1.744,1.347-6.175,4.417-7.993,1.508
		c-1.496-2.395,0.156-6.85,0.73-9.27c3.98-16.842,11.838-32.83,18.854-48.571c-0.95,2.131-3.713,8.335,0.118-0.263
		c0.258-0.574,0.204-0.456,0-0.005c1.383-3.118-2.559-5.931-5.166-3.859c-2.049,1.632-3.347,5.587-4.468,7.895
		c-3.723,7.669-6.877,15.495-10.047,23.411c-1.657,4.138-2.784,8.389-4.098,12.634c-1.057,3.413-1.331,6.311-3.503,9.274
		c-2.661,3.623-5.921,7.021-10.03,8.986c-7.209,3.435-5.762-5.728-4.544-10c2.286-7.991,4.827-15.849,8.02-23.529
		c3.246-7.82,6.613-15.704,10.38-23.287c1.147-2.308,1.217-5.957-2.231-6.006c-3.063-0.038-4.126,3.247-5.332,5.474
		c-3.53,6.521-6.651,13.24-9.339,20.148c-0.601,1.191-1.202,2.377-1.807,3.564c-1.836,3.558-3.713,7.101-5.719,10.568
		c-3.797,6.553-8.121,13.364-13.329,18.908c-4.286,4.553-12.16,6.764-17.637,2.862c-5.123-3.656-6.045-10.907-6.045-16.714
		c-0.005-8.029,2.119-16.021,4.017-23.77c0.558-2.27,1.132-4.53,1.722-6.789c0.37-1.385,0.451-2.925,1.181-4.192
		c2.097-3.639,4.237-7.245,6.431-10.82c4.575-7.46,9.521-14.663,14.247-22.021c1.448-2.26,2.387-4.106,4.887-5.185
		c1.909-0.826,3.818-1.653,5.729-2.485c3.808-1.658,7.594-3.327,11.527-4.691c6.554-2.27,13.275-4.149,20.243-4.487
		c6.259-0.311,13.125,0.606,18.022,4.862c5.069,4.465,5.955,11.872,4.099,18.076c-0.317,1.046-1.632,3.118-0.381,3.939
		c1.045,0.687,1.797,0.129,2.188-0.885c0.981-2.523,0.981-5.415,1.04-8.077c0.182-8.066-3.04-14.63-10.717-17.894
		c-7.188-3.059-15.566-2.925-23.21-2.195c-8.572,0.816-16.768,3.633-24.83,6.526c7.349-11.04,15.186-22.048,21.477-33.737
		c2.226-4.127,6.089-10.782,3.702-15.57c-2.441-4.911-9.72-3.478-13.508-1.288c-5.621,3.247-9.612,8.813-13.205,14.072
		c-4.602,6.735-8.571,13.89-12.203,21.194c-3.77,7.583-7.177,15.344-10.571,23.099c-1.503,3.419-3.385,3.73-6.662,5.04
		c-3.707,1.481-7.44,2.914-11.222,4.202c-13.635,4.632-30.746,7.927-42.542-2.78c-5.304-4.809-7.331-11.163-3.201-17.411
		c3.797-5.753,10.122-9.36,17.02-9.585c3.497-0.118,7.156,0.601,10.212,2.356c2.569,1.476,4.072,3.751,6.008,5.877
		c0.997,1.09,0.959-0.644,0.455-1.299c-0.611-0.784-1.313-1.503-2.022-2.195c-1.389-2.093-3.212-3.875-5.304-5.254
		c-8.556-5.652-21.644-4.831-28.209,3.526c-9.494,12.086,1.512,25.906,13.034,31.048c4.747,2.115,9.913,3.059,15.224,3.193
		c-0.773,0.376-1.556,0.725-2.317,1.116c-6.368,3.263-12.386,7.229-17.691,12.033c-9.301,8.426-16.435,19.268-20.055,31.311
		c-2.129,7.079-3.026,14.496-2.859,21.881c0.15,6.71,0.778,14.412,3.176,20.75c0.305,0.816,1.287,2.238-0.064,2.619
		c-1.245,0.343-2.468,0.757-3.691,1.159c-2.725,0.907-5.397,1.916-8.093,2.893c-1.095,0.397-8.454,2.431-8.315,3.751
		c0.386,0.939,14.279-4.181,16.135-4.745c1.642-0.499,3.632-1.347,5.38-1.261c0.934,0.043,2.875,6.65,3.369,7.712
		c2.89,6.226,6.576,12.199,10.55,17.792c8.915,12.559,20.442,23.497,33.02,32.352c11.876,8.362,27.565,15.704,42.359,11.705
		c14.848-4.014,20.898-18.849,16.596-32.964c-4.253-13.943-15.711-24.779-27.994-31.944c-13.694-7.991-29.583-12.103-45.433-11.84
		c-8.711,0.145-17.405,1.353-25.918,3.156c-1.678,0.354-1.571-1.235-2.033-2.662c-0.317-0.966-0.612-1.938-0.891-2.909
		c-0.562-1.948-1.045-3.918-1.464-5.904c-0.832-3.966-1.373-7.998-1.614-12.045c-0.918-15.21,3.722-30.619,13.345-42.491
		c8.24-10.165,19.595-17.652,31.995-21.79c9.002-0.918,18.034-3.649,25.768-6.58c-6.141,15.135-10.77,30.951-13.485,47.063
		c-1.319,7.847-2.752,15.886-1.442,23.835c0.852,5.206,2.951,10.875,8.351,12.775c6.909,2.249,15.111,1.733,20.946-2.866
		c6.276-4.95,10.337-12.163,14.531-18.818c0.843-1.337,1.641-2.694,2.446-4.047c-1.217,3.907-2.215,7.873-2.677,11.823
		c-0.617,5.281,0.075,14.755,7.461,14.53c6.764-0.204,11.774-7.005,15.399-11.91c-0.509,4.047,0.596,9.329,4.661,11.213
		c4.742,2.206,9.532-1.513,12.676-4.76c8.367-8.648,14.257-19.736,19.831-30.282c2.478,3.607,6.85,5.453,10.92,3.344
		c1.936-1.004,3.466-2.565,4.924-4.16c-0.075,0.226-0.172,0.44-0.242,0.666c-2.424,7.396-4.967,15.35-5.246,23.191
		c-0.177,5.088,1.689,12.582,8.036,12.683c5.433,0.086,10.33-4.75,13.78-8.422c7.472-7.954,13.56-17.491,18.795-27.044
		c3.878-7.079,7.762-14.169,11.382-21.382c0.521-1.047,0.966-2.045,1.324-3.161c0.07-0.209,0.542-2.039,0.944-1.905
		c1.517,0.499,2.8,1.583,4.227,2.276c5.831,2.828,13.196,3.451,19.289,1.1c-11.811,13.643-23.553,27.35-35.128,41.186
		c-2.795,3.344-5.574,6.693-8.346,10.058c-0.805,0.982-5.863,5.513-3.707,6.871c1.036,0.649,2.977-0.843,3.904-1.224
		c1.771-0.725,3.546-1.422,5.332-2.104c4.119-1.573,8.342-2.953,12.724-3.576c4.081-0.574,8.212-0.521,12.327-0.499
		c2.584,0.011,6.039-0.113,7.809,2.17c1.503,1.932,0.564,4.755,2.183,6.666c2.027,2.383,5.536,0.091,5.692-2.523
		c0.215-3.483-0.387-6.619,0.526-10.107c1.002-3.854,2.852-7.444,5.051-10.739c2.206-3.301,4.699-6.408,7.081-9.58
		c0.354-0.472,0.671-0.971,1.02-1.449c-1.523,5.152-2.773,10.358-3.454,15.597c-0.934,7.143-0.124,18.367,9.568,17.97
		c8.132-0.333,13.871-8.975,18.199-14.852c3.524-4.793,6.671-9.811,9.811-14.845c-1.235,5.351-1.75,10.804-1.347,16.09
		c0.43,5.694,3.022,12.732,9.312,14.057c6.693,1.406,13.935-2.598,19.117-6.397c8.528-6.249,15.87-14.669,22.005-23.664
		c-0.284,0.843-0.585,1.68-0.848,2.522c-1.852,5.925-3.837,12.269-3.757,18.532c0.064,4.708,1.894,11.218,7.669,11.057
		c5.211-0.14,10.326-3.918,13.659-7.605c4.522-5.009,8.292-10.757,11.63-16.601c-1.149,2.195-1.127,5.603-1.449,8.034
		c-0.37,2.786-0.387,5.662,0.419,8.379c1.516,5.098,6.43,8.002,11.526,5.662c5.434-2.485,9.478-8.358,12.884-13.043
		c3.886-5.351,7.272-10.992,10.503-16.761c2.077-3.709,4.237-7.519,5.898-11.426c0.494-1.154,0.746-4.487-1.484-2.673
		c-1.017,0.832-1.436,2.41-1.886,3.59c-0.612,1.605-1.449,3.129-2.265,4.642c-1.943,3.596-3.991,7.144-6.076,10.659
		c-4.009,6.768-8.327,14.351-14.351,19.548c-2.128,1.83-6.703,5.201-8.834,1.476c-1.411-2.481-0.322-6.597,0.102-9.195
		c1.363-8.394,4.752-16.273,7.616-24.237c3.011-8.356,6.497-16.514,9.977-24.688c6.915-16.235,14.228-32.331,20.438-48.856
		c1.61-4.272,3.15-8.571,4.532-12.924c0.633-1.996,1.24-4.004,1.817-6.011c0.236-0.81,0.317-2.737,0.955-3.344
		c0.558-0.515,2.367-0.177,3.07-0.166c1.739,0.021,3.566-0.349,5.281-0.612c4.047-0.622,8.048-1.492,12.038-2.361
		c17.045-3.709,33.836-8.662,51.061-11.55c16.251-2.726,34.36-4.218,50.445,0.188c7.506,2.05,14.475,5.63,20.443,10.632
		c3.129,2.619,5.928,5.593,8.437,8.802c0.397,0.51,1.057,2.286,1.932,1.991C637.492,109.204,636.585,107.636,636.408,107.298z
		 M376.501,180.848c2.955-3.687,9.961-11.636,15.398-7.82c6.47,4.546,0.59,16.09-3.094,20.48
		c-5.38,6.408-13.297,9.762-21.535,10.439c-0.043,0.005-0.032,0.005-0.043,0.011c-0.961,0.059-1.916,0.242-2.887,0.242
		C366.475,195.618,370.994,187.707,376.501,180.848z M155.394,109.778c2.773-4.981,5.821-9.816,9.043-14.518
		c2.29-3.354,5.826-9.226,10.02-10.321c1.791-0.472,2.704-1.138,4.554-0.172c1.63,0.854,1.197,3.526,0.891,4.981
		c-1.057,5.061-3.959,9.956-6.572,14.346c-5.019,8.437-10.598,16.525-16.161,24.613c0.864-1.272,0.902-1.336-2.489,3.617
		c-0.798,1.224-1.104,2.329-2.525,2.92c-1.149,0.478-2.313,0.896-3.471,1.353c-2.457,0.971-4.838,2.136-7.29,3.124
		C145.583,129.528,150.03,119.412,155.394,109.778z M137.039,151.174c0.591-1.605,0.929-3.682,2.607-4.492
		c2.43-1.175,4.978-2.131,7.424-3.269c-1.589,2.378-3.181,4.761-4.774,7.138c-2.612,3.923-7.639,11.802-11.228,17.711
		C133.124,162.589,134.963,156.841,137.039,151.174z M135.334,259.878c11.205,7.675,23.467,18.441,26.16,32.471
		c1.357,7.057-0.633,14.018-5.847,19.026c-4.833,4.637-11.484,6.258-18.028,5.941c-15.518-0.746-29.035-10.884-39.838-21.194
		c-11.344-10.82-22.25-22.697-29.159-36.919c-1.786-3.687-3.465-7.428-5-11.233C87.804,243.53,114.581,245.666,135.334,259.878z
		 M218.093,192.982c0.215-4.16-0.675-8.206-0.272-12.403c0.369-3.853,0.857-7.836,1.947-11.56c0.745-2.56,1.914-5.931,4.216-7.573
		c1.223-0.875,2.462-0.29,2.607,1.084c0.419,3.961-0.977,8.399-1.899,12.205c-1.186,4.889-2.983,9.478-4.79,14.174
		C219.3,190.267,218.699,191.625,218.093,192.982z M437.674,196.407c0.386-1.406,1.154-4.197-0.118,0.456
		c-0.043,0.15-0.086,0.301-0.129,0.451c0.022-0.086,0.054-0.177,0.075-0.263c0.011-0.054,0.075-0.274,0.156-0.58
		c-4.143,11.99-8.523,25.617-18.505,34.13c-2.047,1.75-9.913,7.798-11.142,2.157c-0.545-2.544,0.188-5.588,0.537-8.105
		c0.483-3.505,1.46-6.859,2.453-10.246c3.891-13.198,8.984-26.733,16.825-38.133c1.454-2.109,3.907-5.437,6.867-5.056
		c2.364,0.306,3.609,3.005,4.173,5.023C440.706,182.844,439.423,189.912,437.674,196.407z M482.115,90.194
		c-0.794,3.317-2.037,6.478-3.196,9.671c0.29-0.8,0.988-2.753-0.107,0.295c-0.043,0.129-0.086,0.258-0.129,0.392
		c-5.136-1.621-8.684-6.784-7.557-12.194c0.792-3.816,5.276-9.95,9.883-7.401C483.948,82.589,482.722,87.671,482.115,90.194z
		 M479.735,78.349C473.179,77.855,490.364,78.622,479.735,78.349L479.735,78.349z M437.679,196.407
		c-0.005,0.016-0.011,0.038-0.016,0.054c-0.021,0.075-0.043,0.15-0.059,0.226C437.631,196.589,437.647,196.498,437.679,196.407z
		 M437.604,196.686c-0.016,0.059-0.032,0.118-0.048,0.177c-0.048,0.177-0.064,0.22-0.054,0.188
		C437.534,196.927,437.566,196.804,437.604,196.686z M437.663,196.46c0-0.016,0.005-0.037,0.011-0.054
		c-0.005,0.021-0.011,0.043-0.016,0.064C437.658,196.466,437.658,196.466,437.663,196.46z M121.135,234.224
		c-0.199-0.07-0.376-0.129-0.52-0.177C120.776,234.1,120.953,234.165,121.135,234.224z M122.535,234.696
		c-0.027-0.011-0.07-0.027-0.113-0.038c0.005,0,0.005,0,0.005,0C122.486,234.68,122.508,234.685,122.535,234.696z M122.535,234.696
		C122.572,234.707,122.578,234.707,122.535,234.696L122.535,234.696z M120.615,234.047
		C119.643,233.725,119.965,233.832,120.615,234.047L120.615,234.047z M122.068,234.535c0.075,0.027,0.161,0.043,0.236,0.07
		c0.043,0.011,0.075,0.038,0.118,0.054c-0.021-0.011-0.032-0.016-0.059-0.021C122.266,234.605,122.164,234.567,122.068,234.535z
		 M121.135,234.224c0.343,0.118,0.745,0.252,1.292,0.435c-0.021-0.011-0.043-0.016-0.064-0.021
		C122.089,234.546,121.602,234.379,121.135,234.224z M219.901,188.909C219.3,190.267,221.134,185.699,219.901,188.909
		L219.901,188.909z M252.192,156.084c0-5.737,8.92-5.737,8.92,0C261.112,161.822,252.192,161.822,252.192,156.084z M389.221,130.656
		c-0.089-0.038-0.158-0.07-0.255-0.113C389.03,130.543,389.14,130.607,389.221,130.656z"/>
</g>
</svg>
